M48
; DRILL file {KiCad 7.0.2} date Thu May 25 15:55:08 2023
; FORMAT={-:-/ absolute / inch / decimal}
; #@! TF.CreationDate,2023-05-25T15:55:08+02:00
; #@! TF.GenerationSoftware,Kicad,Pcbnew,7.0.2
; #@! TF.FileFunction,MixedPlating,1,2
FMAT,2
INCH
; #@! TA.AperFunction,Plated,PTH,ViaDrill
T1C0.0315
; #@! TA.AperFunction,Plated,PTH,ComponentDrill
T2C0.0315
; #@! TA.AperFunction,Plated,PTH,ComponentDrill
T3C0.0394
; #@! TA.AperFunction,Plated,PTH,ComponentDrill
T4C0.0433
; #@! TA.AperFunction,Plated,PTH,ComponentDrill
T5C0.0512
; #@! TA.AperFunction,Plated,PTH,ComponentDrill
T6C0.0669
; #@! TA.AperFunction,NonPlated,NPTH,ComponentDrill
T7C0.0984
; #@! TA.AperFunction,NonPlated,NPTH,ComponentDrill
T8C0.1693
%
G90
G05
T1
X2.3791Y-5.5857
X2.859Y-4.2793
X3.1531Y-5.799
X3.1531Y-5.8923
X3.2527Y-7.6797
X3.2535Y-7.7974
X3.2578Y-10.1899
X3.344Y-7.532
X3.3511Y-3.3005
X3.3767Y-8.8628
X3.4511Y-8.5639
X3.4582Y-8.7088
X3.5023Y-4.845
X3.5059Y-7.9013
X3.5078Y-8.8061
X3.7539Y-7.7041
X3.8582Y-7.7982
X3.8594Y-8.171
X3.9311Y-8.2462
X3.9563Y-8.3923
X4.0078Y-8.7852
X4.0523Y-8.5671
X4.1244Y-8.0494
X4.2059Y-7.9777
X4.2803Y-7.8966
X4.3025Y-3.349
X4.3559Y-8.4143
X4.42Y-7.8966
X4.5043Y-7.7041
X4.6059Y-7.7974
X4.611Y-2.8502
X4.7059Y-8.584
X4.7889Y-8.5096
X4.8003Y-3.1557
X4.859Y-9.7885
X4.859Y-10.2885
X4.8745Y-8.4872
X4.9244Y-8.1057
X4.9972Y-3.0041
X5.0059Y-8.2907
X5.0779Y-8.0462
X5.1023Y-8.2907
X5.1791Y-3.395
X5.2535Y-7.5352
X5.259Y-8.4872
X5.2987Y-8.7387
X5.3Y-6.3423
X5.3002Y-6.9458
X5.3035Y-5.749
X5.3939Y-8.5835
X5.4035Y-2.9454
X5.4055Y-8.2917
X5.4131Y-7.536
X5.4578Y-8.682
X5.4964Y-3.7474
X5.5063Y-8.2907
X5.5259Y-8.5096
X5.5464Y-3.3053
X5.5468Y-3.2037
X5.5472Y-3.1025
X5.5559Y-8.1935
X5.5732Y-3.6395
X5.7007Y-7.5352
X5.7055Y-8.1502
X5.7063Y-8.2907
X5.7838Y-7.7966
X5.8862Y-7.6915
X5.9082Y-2.8529
X5.9082Y-3.3525
X5.9082Y-3.8391
X5.9082Y-4.3533
X5.9082Y-4.8443
X5.9082Y-5.3505
X5.9082Y-5.8466
X5.9082Y-6.3395
X5.9767Y-6.7017
X6.0007Y-2.6498
X6.0007Y-2.9498
X6.0007Y-3.447
X6.0007Y-3.9435
X6.0007Y-4.4478
X6.0007Y-4.9431
X6.0007Y-5.445
X6.0007Y-5.9403
X6.0007Y-6.4356
X6.0051Y-7.6194
X6.0783Y-6.7017
X6.1547Y-7.5372
X6.1563Y-6.9486
X6.2082Y-7.1915
X6.3016Y-7.1135
X6.4003Y-7.0214
X6.4771Y-8.5049
X6.4805Y-6.9446
X6.5311Y-7.4198
X6.5528Y-10.2324
X6.6195Y-7.4013
X6.6702Y-7.2828
X6.6728Y-8.6533
X6.7311Y-6.9509
X6.7807Y-7.1647
X6.8637Y-10.9242
X6.8807Y-7.0151
X6.9574Y-7.0899
X7.0755Y-7.0565
X7.4035Y-8.7317
X7.4996Y-3.7891
X7.5543Y-8.5309
X7.6551Y-8.6789
X7.85Y-8.5309
X8.4559Y-8.6293
X9.2031Y-8.6289
T2
X3.1574Y-11.1852
X3.1574Y-11.6852
X3.2527Y-3.6037
X3.2527Y-4.2037
X3.2527Y-5.0458
X3.2527Y-5.6458
X3.2527Y-6.3458
X3.2527Y-6.9458
X3.2543Y-7.9541
X3.2543Y-8.2966
X3.2578Y-8.9939
X3.2578Y-9.0982
X3.2578Y-9.2002
X3.2618Y-10.4898
X3.2618Y-10.9898
X3.2618Y-11.1852
X3.2618Y-11.6852
X3.3527Y-3.6037
X3.3527Y-4.2037
X3.3527Y-5.0458
X3.3527Y-5.6458
X3.3527Y-6.3458
X3.3527Y-6.9458
X3.3594Y-10.4898
X3.3598Y-10.1868
X3.3598Y-10.3931
X3.3598Y-10.5915
X3.3598Y-10.6907
X3.4527Y-3.6037
X3.4527Y-4.2037
X3.4527Y-5.0458
X3.4527Y-5.6458
X3.4527Y-6.3458
X3.4527Y-6.9458
X3.457Y-9.3395
X3.457Y-9.4395
X3.457Y-9.5395
X3.457Y-9.6395
X3.457Y-9.7395
X3.457Y-9.8395
X3.457Y-9.9395
X3.457Y-10.0395
X3.459Y-11.5919
X3.459Y-11.6891
X3.459Y-11.7911
X3.461Y-10.8332
X3.461Y-10.9332
X3.461Y-11.0332
X3.461Y-11.1332
X3.461Y-11.2332
X3.461Y-11.3332
X3.461Y-11.4332
X3.5527Y-3.6037
X3.5527Y-4.2037
X3.5527Y-5.0458
X3.5527Y-5.6458
X3.5527Y-6.3458
X3.5527Y-6.9458
X3.6527Y-3.6037
X3.6527Y-4.2037
X3.6527Y-5.0458
X3.6527Y-5.6458
X3.6527Y-6.3458
X3.6527Y-6.9458
X3.7527Y-3.6037
X3.7527Y-4.2037
X3.7527Y-5.0458
X3.7527Y-5.6458
X3.7527Y-6.3458
X3.7527Y-6.9458
X3.757Y-9.3395
X3.757Y-9.4395
X3.757Y-9.5395
X3.757Y-9.6395
X3.757Y-9.7395
X3.757Y-9.8395
X3.757Y-9.9395
X3.757Y-10.0395
X3.7578Y-8.9939
X3.7578Y-9.0982
X3.7578Y-9.2002
X3.761Y-10.8332
X3.761Y-10.9332
X3.761Y-11.0332
X3.761Y-11.1332
X3.761Y-11.2332
X3.761Y-11.3332
X3.761Y-11.4332
X3.8527Y-3.6037
X3.8527Y-4.2037
X3.8527Y-5.0458
X3.8527Y-5.6458
X3.8527Y-6.3458
X3.8527Y-6.9458
X3.8594Y-10.4898
X3.8598Y-10.1868
X3.8598Y-10.3931
X3.8598Y-10.5915
X3.8598Y-10.6907
X3.9527Y-3.6037
X3.9527Y-4.2037
X3.9527Y-5.0458
X3.9527Y-5.6458
X3.9527Y-6.3458
X3.9527Y-6.9458
X3.959Y-11.5919
X3.959Y-11.6891
X3.959Y-11.7911
X4.0527Y-3.6037
X4.0527Y-4.2037
X4.0527Y-5.0458
X4.0527Y-5.6458
X4.0527Y-6.3458
X4.0527Y-6.9458
X4.1527Y-3.6037
X4.1527Y-4.2037
X4.1527Y-5.0458
X4.1527Y-5.6458
X4.1527Y-6.3458
X4.1527Y-6.9458
X4.2527Y-3.6037
X4.2527Y-4.2037
X4.2527Y-5.0458
X4.2527Y-5.6458
X4.2527Y-6.3458
X4.2527Y-6.9458
X4.259Y-10.8793
X4.3527Y-3.6037
X4.3527Y-4.2037
X4.3527Y-5.0458
X4.3527Y-5.6458
X4.3527Y-6.3458
X4.3527Y-6.9458
X4.4094Y-8.9876
X4.4094Y-9.0876
X4.4094Y-9.1876
X4.4094Y-9.2876
X4.4094Y-9.3876
X4.4094Y-9.4876
X4.4094Y-9.5876
X4.4094Y-9.7885
X4.4094Y-9.8885
X4.4094Y-9.9885
X4.4094Y-10.0885
X4.4094Y-10.1885
X4.4094Y-10.2885
X4.4094Y-10.3885
X4.4527Y-3.6037
X4.4527Y-4.2037
X4.4527Y-5.0458
X4.4527Y-5.6458
X4.4527Y-6.3458
X4.4527Y-6.9458
X4.5527Y-3.6037
X4.5527Y-4.2037
X4.5527Y-5.0458
X4.5527Y-5.6458
X4.5527Y-6.3458
X4.5527Y-6.9458
X4.6082Y-12.2238
X4.6082Y-12.3265
X4.6527Y-3.6037
X4.6527Y-4.2037
X4.6527Y-5.0458
X4.6527Y-5.6458
X4.6527Y-6.3458
X4.6527Y-6.9458
X4.6992Y-2.6435
X4.6992Y-3.1553
X4.7003Y-2.538
X4.7094Y-8.9876
X4.7094Y-9.0876
X4.7094Y-9.1876
X4.7094Y-9.2876
X4.7094Y-9.3876
X4.7094Y-9.4876
X4.7094Y-9.5876
X4.7094Y-9.7885
X4.7094Y-9.8885
X4.7094Y-9.9885
X4.7094Y-10.0885
X4.7094Y-10.1885
X4.7094Y-10.2885
X4.7094Y-10.3885
X4.7527Y-3.6037
X4.7527Y-4.2037
X4.7527Y-5.0458
X4.7527Y-5.6458
X4.7527Y-6.3458
X4.7527Y-6.9458
X4.759Y-10.8793
X4.8527Y-3.6037
X4.8527Y-4.2037
X4.8527Y-5.0458
X4.8527Y-5.6458
X4.8527Y-6.3458
X4.8527Y-6.9458
X4.8586Y-10.8793
X4.9011Y-2.6435
X4.9011Y-3.1553
X4.9059Y-11.0801
X4.9059Y-11.1801
X4.9059Y-11.2801
X4.9059Y-11.3801
X4.9527Y-3.6037
X4.9527Y-4.2037
X4.9527Y-5.0458
X4.9527Y-5.6458
X4.9527Y-6.3458
X4.9527Y-6.9458
X4.957Y-9.7885
X4.957Y-10.2885
X5.0527Y-3.6037
X5.0527Y-4.2037
X5.0527Y-5.0458
X5.0527Y-5.6458
X5.0527Y-6.3458
X5.0527Y-6.9458
X5.1035Y-2.6435
X5.1035Y-3.1553
X5.1082Y-12.2238
X5.1082Y-12.3265
X5.1527Y-3.6037
X5.1527Y-4.2037
X5.1527Y-5.0458
X5.1527Y-5.6458
X5.1527Y-6.3458
X5.1527Y-6.9458
X5.2003Y-2.538
X5.2007Y-2.6435
X5.2007Y-3.1553
X5.2059Y-11.0801
X5.2059Y-11.1801
X5.2059Y-11.2801
X5.2059Y-11.3801
X5.2118Y-11.7868
X5.2118Y-12.2868
X5.296Y-2.6435
X5.3586Y-9.7885
X5.3586Y-10.2885
X5.3586Y-10.8793
X5.4535Y-9.608
X5.5285Y-9.683
X5.557Y-9.7885
X5.557Y-10.2885
X5.6035Y-9.608
X5.657Y-9.7885
X5.657Y-10.2885
X5.7063Y-9.5376
X5.8078Y-2.6435
X5.9578Y-11.4336
X5.9578Y-11.9336
X6.0047Y-8.1883
X6.0047Y-8.2883
X6.0047Y-8.3883
X6.0047Y-8.4883
X6.0047Y-8.5883
X6.0047Y-8.6883
X6.0047Y-8.7883
X6.0047Y-8.8883
X6.0066Y-9.8324
X6.0066Y-9.9324
X6.0066Y-10.0324
X6.0066Y-10.1324
X6.0066Y-10.2324
X6.0066Y-10.3324
X6.0066Y-10.4324
X6.0098Y-10.6789
X6.0098Y-10.7789
X6.0098Y-10.8789
X6.0098Y-10.9789
X6.0098Y-11.0789
X6.0098Y-11.1789
X6.0098Y-11.2789
X6.1507Y-2.6498
X6.1507Y-2.9498
X6.1507Y-3.147
X6.1507Y-3.447
X6.1507Y-3.6435
X6.1507Y-3.9435
X6.1507Y-4.1478
X6.1507Y-4.4478
X6.1507Y-4.6431
X6.1507Y-4.9431
X6.1507Y-5.145
X6.1507Y-5.445
X6.1507Y-5.6403
X6.1507Y-5.9403
X6.1507Y-6.1356
X6.1507Y-6.4356
X6.2063Y-9.5376
X6.2102Y-11.4336
X6.2102Y-11.9336
X6.2507Y-2.6498
X6.2507Y-2.9498
X6.2507Y-3.147
X6.2507Y-3.447
X6.2507Y-3.6435
X6.2507Y-3.9435
X6.2507Y-4.1478
X6.2507Y-4.4478
X6.2507Y-4.6431
X6.2507Y-4.9431
X6.2507Y-5.145
X6.2507Y-5.445
X6.2507Y-5.6403
X6.2507Y-5.9403
X6.2507Y-6.1356
X6.2507Y-6.4356
X6.3047Y-8.1883
X6.3047Y-8.2883
X6.3047Y-8.3883
X6.3047Y-8.4883
X6.3047Y-8.5883
X6.3047Y-8.6883
X6.3047Y-8.7883
X6.3047Y-8.8883
X6.3066Y-9.8324
X6.3066Y-9.9324
X6.3066Y-10.0324
X6.3066Y-10.1324
X6.3066Y-10.2324
X6.3066Y-10.3324
X6.3066Y-10.4324
X6.3082Y-11.4336
X6.3082Y-11.9336
X6.3098Y-10.6789
X6.3098Y-10.7789
X6.3098Y-10.8789
X6.3098Y-10.9789
X6.3098Y-11.0789
X6.3098Y-11.1789
X6.3098Y-11.2789
X6.3507Y-2.6498
X6.3507Y-2.9498
X6.3507Y-3.147
X6.3507Y-3.447
X6.3507Y-3.6435
X6.3507Y-3.9435
X6.3507Y-4.1478
X6.3507Y-4.4478
X6.3507Y-4.6431
X6.3507Y-4.9431
X6.3507Y-5.145
X6.3507Y-5.445
X6.3507Y-5.6403
X6.3507Y-5.9403
X6.3507Y-6.1356
X6.3507Y-6.4356
X6.4086Y-11.4336
X6.4086Y-11.9336
X6.4507Y-2.6498
X6.4507Y-2.9498
X6.4507Y-3.147
X6.4507Y-3.447
X6.4507Y-3.6435
X6.4507Y-3.9435
X6.4507Y-4.1478
X6.4507Y-4.4478
X6.4507Y-4.6431
X6.4507Y-4.9431
X6.4507Y-5.145
X6.4507Y-5.445
X6.4507Y-5.6403
X6.4507Y-5.9403
X6.4507Y-6.1356
X6.4507Y-6.4356
X6.5066Y-11.4336
X6.5066Y-11.9336
X6.5507Y-2.6498
X6.5507Y-2.9498
X6.5507Y-3.147
X6.5507Y-3.447
X6.5507Y-3.6435
X6.5507Y-3.9435
X6.5507Y-4.1478
X6.5507Y-4.4478
X6.5507Y-4.6431
X6.5507Y-4.9431
X6.5507Y-5.145
X6.5507Y-5.445
X6.5507Y-5.6403
X6.5507Y-5.9403
X6.5507Y-6.1356
X6.5507Y-6.4356
X6.6507Y-2.6498
X6.6507Y-2.9498
X6.6507Y-3.147
X6.6507Y-3.447
X6.6507Y-3.6435
X6.6507Y-3.9435
X6.6507Y-4.1478
X6.6507Y-4.4478
X6.6507Y-4.6431
X6.6507Y-4.9431
X6.6507Y-5.145
X6.6507Y-5.445
X6.6507Y-5.6403
X6.6507Y-5.9403
X6.6507Y-6.1356
X6.6507Y-6.4356
X6.7507Y-2.6498
X6.7507Y-2.9498
X6.7507Y-3.147
X6.7507Y-3.447
X6.7507Y-3.6435
X6.7507Y-3.9435
X6.7507Y-4.1478
X6.7507Y-4.4478
X6.7507Y-4.6431
X6.7507Y-4.9431
X6.7507Y-5.145
X6.7507Y-5.445
X6.7507Y-5.6403
X6.7507Y-5.9403
X6.7507Y-6.1356
X6.7507Y-6.4356
X6.8507Y-2.6498
X6.8507Y-2.9498
X6.8507Y-3.147
X6.8507Y-3.447
X6.8507Y-3.6435
X6.8507Y-3.9435
X6.8507Y-4.1478
X6.8507Y-4.4478
X6.8507Y-4.6431
X6.8507Y-4.9431
X6.8507Y-5.145
X6.8507Y-5.445
X6.8507Y-5.6403
X6.8507Y-5.9403
X6.8507Y-6.1356
X6.8507Y-6.4356
X6.9078Y-9.9324
X6.9078Y-10.4324
X6.9543Y-7.7836
X6.9543Y-7.8836
X6.9543Y-7.9836
X6.9543Y-8.0836
X6.9543Y-8.1836
X6.9543Y-8.2836
X6.9543Y-8.3836
X7.2543Y-7.7836
X7.2543Y-7.8836
X7.2543Y-7.9836
X7.2543Y-8.0836
X7.2543Y-8.1836
X7.2543Y-8.2836
X7.2543Y-8.3836
X7.2992Y-3.945
X7.2992Y-4.045
X7.2992Y-4.145
X7.2992Y-4.245
X7.2992Y-4.345
X7.2992Y-4.445
X7.2992Y-4.545
X7.2992Y-4.938
X7.2992Y-5.038
X7.2992Y-5.138
X7.2992Y-5.238
X7.2992Y-5.338
X7.2992Y-5.438
X7.2992Y-5.538
X7.3775Y-7.7836
X7.3775Y-7.8836
X7.3775Y-7.9836
X7.3775Y-8.0836
X7.3775Y-8.1836
X7.3775Y-8.2836
X7.3775Y-8.3836
X7.4019Y-6.7852
X7.4019Y-7.2852
X7.5035Y-6.7852
X7.5035Y-7.2852
X7.5037Y-7.458
X7.5787Y-7.383
X7.5787Y-7.533
X7.5992Y-3.945
X7.5992Y-4.045
X7.5992Y-4.145
X7.5992Y-4.245
X7.5992Y-4.345
X7.5992Y-4.445
X7.5992Y-4.545
X7.5992Y-4.938
X7.5992Y-5.038
X7.5992Y-5.138
X7.5992Y-5.238
X7.5992Y-5.338
X7.5992Y-5.438
X7.5992Y-5.538
X7.6563Y-6.7848
X7.6563Y-7.2848
X7.6775Y-7.7836
X7.6775Y-7.8836
X7.6775Y-7.9836
X7.6775Y-8.0836
X7.6775Y-8.1836
X7.6775Y-8.2836
X7.6775Y-8.3836
X7.757Y-6.7852
X7.757Y-7.2852
X7.7571Y-7.458
X7.8035Y-7.7836
X7.8035Y-7.8836
X7.8035Y-7.9836
X7.8035Y-8.0836
X7.8035Y-8.1836
X7.8035Y-8.2836
X7.8035Y-8.3836
X7.8043Y-5.8383
X7.8043Y-5.9383
X7.8043Y-6.0383
X7.8043Y-6.1383
X7.8043Y-6.2383
X7.8043Y-6.3383
X7.8043Y-6.4383
X7.8321Y-7.383
X7.8321Y-7.533
X7.9031Y-6.7852
X7.9031Y-7.2852
X8.0039Y-6.7852
X8.0039Y-7.2852
X8.004Y-7.458
X8.079Y-7.383
X8.079Y-7.533
X8.1035Y-7.7836
X8.1035Y-7.8836
X8.1035Y-7.9836
X8.1035Y-8.0836
X8.1035Y-8.1836
X8.1035Y-8.2836
X8.1035Y-8.3836
X8.1043Y-5.8383
X8.1043Y-5.9383
X8.1043Y-6.0383
X8.1043Y-6.1383
X8.1043Y-6.2383
X8.1043Y-6.3383
X8.1043Y-6.4383
X8.1559Y-6.7852
X8.1559Y-7.2852
X8.2275Y-7.7836
X8.2275Y-7.8836
X8.2275Y-7.9836
X8.2275Y-8.0836
X8.2275Y-8.1836
X8.2275Y-8.2836
X8.2275Y-8.3836
X8.257Y-6.7852
X8.257Y-7.2852
X8.2573Y-7.458
X8.3323Y-7.383
X8.3323Y-7.533
X8.4023Y-6.7852
X8.4023Y-7.2852
X8.5023Y-5.9884
X8.5023Y-6.0884
X8.5023Y-6.1884
X8.5023Y-6.2884
X8.5035Y-6.7852
X8.5035Y-7.2852
X8.5037Y-7.458
X8.5275Y-7.7836
X8.5275Y-7.8836
X8.5275Y-7.9836
X8.5275Y-8.0836
X8.5275Y-8.1836
X8.5275Y-8.2836
X8.5275Y-8.3836
X8.5787Y-7.383
X8.5787Y-7.533
X8.65Y-6.7852
X8.65Y-7.2852
X8.7511Y-6.7852
X8.7511Y-7.2852
X8.7514Y-7.458
X8.7775Y-7.7836
X8.7775Y-7.8836
X8.7775Y-7.9836
X8.7775Y-8.0836
X8.7775Y-8.1836
X8.7775Y-8.2836
X8.7775Y-8.3836
X8.8264Y-7.383
X8.8264Y-7.533
X8.8767Y-6.3883
X8.8767Y-6.8883
X9.0023Y-5.9884
X9.0023Y-6.0884
X9.0023Y-6.1884
X9.0023Y-6.2884
X9.0023Y-6.3883
X9.0023Y-6.8883
X9.0775Y-7.7836
X9.0775Y-7.8836
X9.0775Y-7.9836
X9.0775Y-8.0836
X9.0775Y-8.1836
X9.0775Y-8.2836
X9.0775Y-8.3836
X9.2031Y-7.7836
X9.2031Y-7.8836
X9.2031Y-7.9836
X9.2031Y-8.0836
X9.2031Y-8.1836
X9.2031Y-8.2836
X9.2031Y-8.3836
X9.2488Y-5.8883
X9.2488Y-6.3883
X9.5031Y-7.7836
X9.5031Y-7.8836
X9.5031Y-7.9836
X9.5031Y-8.0836
X9.5031Y-8.1836
X9.5031Y-8.2836
X9.5031Y-8.3836
T3
X7.6043Y-9.0183
X7.7043Y-9.0183
X7.8043Y-9.0183
X7.9043Y-9.0183
X8.0043Y-9.0183
X8.1043Y-9.0183
X8.2043Y-9.0183
X8.3043Y-9.0183
X8.4043Y-9.0183
X8.5043Y-9.0183
X8.6043Y-9.0183
X8.7043Y-9.0183
X8.8043Y-9.0183
X8.9043Y-9.0183
X9.0043Y-9.0183
T4
X2.3063Y-6.8049
X2.3063Y-7.2891
X2.3066Y-7.4891
X2.3066Y-8.3891
X2.4129Y-11.1793
X2.4129Y-11.888
X2.6149Y-11.0285
X2.6149Y-11.7372
X2.9078Y-10.6813
X2.9078Y-12.1813
X3.1598Y-11.9336
X3.2594Y-12.3246
X4.059Y-9.7592
X4.059Y-10.9592
X4.0598Y-11.9336
X4.2082Y-11.886
X4.2082Y-12.0813
X4.2346Y-10.636
X4.4594Y-12.3246
X5.0043Y-9.2435
X5.1074Y-12.4502
X5.1082Y-11.886
X5.1082Y-12.0813
X5.1551Y-9.5407
X5.1551Y-10.4407
X5.359Y-11.2529
X5.359Y-12.1529
X5.6102Y-10.7541
X5.6102Y-12.1541
X5.6346Y-10.636
X5.7334Y-9.6584
X5.8019Y-4.0474
X5.8019Y-5.4474
X5.8527Y-10.5553
X6.2334Y-9.6584
X6.3527Y-10.5553
X6.6074Y-12.4502
X6.6822Y-9.3848
X6.6822Y-10.7848
X6.7043Y-9.2435
X6.7578Y-10.9978
X6.7578Y-12.4978
X7.9011Y-4.1943
X7.9011Y-5.5943
T5
X4.1275Y-11.2208
X4.1275Y-11.5752
T6
X7.3515Y-2.734
X7.3515Y-3.2198
T7
X7.4185Y-11.3411
X9.1901Y-11.3411
T8
X2.4086Y-2.5631
X2.4086Y-12.7206
X6.9362Y-9.1183
X6.9362Y-12.3072
X7.4185Y-10.3962
X7.8318Y-9.4907
X7.8318Y-12.2466
X8.3043Y-10.8687
X8.7767Y-9.4907
X8.7767Y-12.2466
X9.1901Y-10.3962
X9.6724Y-2.5631
X9.6724Y-9.7088
X9.6724Y-12.7206
T5
G00X4.598Y-11.1273
M15
G01X4.5232Y-11.1273
M16
G05
G00X4.598Y-11.6687
M15
G01X4.5232Y-11.6687
M16
G05
T0
M30
