G04 #@! TF.GenerationSoftware,KiCad,Pcbnew,(7.0.0)*
G04 #@! TF.CreationDate,2023-03-20T23:16:31+01:00*
G04 #@! TF.ProjectId,kim-1,6b696d2d-312e-46b6-9963-61645f706362,rev?*
G04 #@! TF.SameCoordinates,Original*
G04 #@! TF.FileFunction,Soldermask,Bot*
G04 #@! TF.FilePolarity,Negative*
%FSLAX46Y46*%
G04 Gerber Fmt 4.6, Leading zero omitted, Abs format (unit mm)*
G04 Created by KiCad (PCBNEW (7.0.0)) date 2023-03-20 23:16:31*
%MOMM*%
%LPD*%
G01*
G04 APERTURE LIST*
G04 Aperture macros list*
%AMRoundRect*
0 Rectangle with rounded corners*
0 $1 Rounding radius*
0 $2 $3 $4 $5 $6 $7 $8 $9 X,Y pos of 4 corners*
0 Add a 4 corners polygon primitive as box body*
4,1,4,$2,$3,$4,$5,$6,$7,$8,$9,$2,$3,0*
0 Add four circle primitives for the rounded corners*
1,1,$1+$1,$2,$3*
1,1,$1+$1,$4,$5*
1,1,$1+$1,$6,$7*
1,1,$1+$1,$8,$9*
0 Add four rect primitives between the rounded corners*
20,1,$1+$1,$2,$3,$4,$5,0*
20,1,$1+$1,$4,$5,$6,$7,0*
20,1,$1+$1,$6,$7,$8,$9,0*
20,1,$1+$1,$8,$9,$2,$3,0*%
%AMFreePoly0*
4,1,22,-1.300000,4.445000,1.300000,4.445000,1.300000,-3.145000,1.280250,-3.370743,1.221600,-3.589626,1.125833,-3.795000,0.995858,-3.980624,0.835624,-4.140858,0.650000,-4.270833,0.444626,-4.366600,0.225743,-4.425250,0.000000,-4.445000,-0.225743,-4.425250,-0.444626,-4.366600,-0.650000,-4.270833,-0.835624,-4.140858,-0.995858,-3.980624,-1.125833,-3.795000,-1.221600,-3.589626,-1.280250,-3.370743,
-1.300000,-3.145000,-1.300000,4.445000,-1.300000,4.445000,$1*%
G04 Aperture macros list end*
%ADD10C,1.100000*%
%ADD11C,1.600000*%
%ADD12C,1.200000*%
%ADD13C,0.120000*%
%ADD14C,1.500000*%
%ADD15C,1.400000*%
%ADD16C,1.300000*%
%ADD17C,2.200000*%
%ADD18C,1.600000*%
%ADD19O,1.600000X1.600000*%
%ADD20C,4.300000*%
%ADD21C,2.500000*%
%ADD22O,1.200000X1.200000*%
%ADD23FreePoly0,90.000000*%
%ADD24C,2.340000*%
%ADD25RoundRect,0.765000X0.085000X-0.735000X0.085000X0.735000X-0.085000X0.735000X-0.085000X-0.735000X0*%
%ADD26C,2.700000*%
%ADD27O,1.600000X1.500000*%
%ADD28O,2.200000X2.200000*%
G04 APERTURE END LIST*
D10*
X147458825Y-198033954D02*
G75*
G03*
X147458825Y-198033954I-550000J0D01*
G01*
X152968825Y-87553954D02*
G75*
G03*
X152968825Y-87553954I-550000J0D01*
G01*
X234308825Y-219173954D02*
G75*
G03*
X234308825Y-219173954I-550000J0D01*
G01*
X141668825Y-208113954D02*
G75*
G03*
X141668825Y-208113954I-550000J0D01*
G01*
X83288825Y-198053954D02*
G75*
G03*
X83288825Y-198053954I-550000J0D01*
G01*
X150618825Y-97513954D02*
G75*
G03*
X150618825Y-97513954I-550000J0D01*
G01*
X129528825Y-204373954D02*
G75*
G03*
X129528825Y-204373954I-550000J0D01*
G01*
X215328825Y-219183954D02*
G75*
G03*
X215328825Y-219183954I-550000J0D01*
G01*
X145468825Y-207013954D02*
G75*
G03*
X145468825Y-207013954I-550000J0D01*
G01*
X101038825Y-213163954D02*
G75*
G03*
X101038825Y-213163954I-550000J0D01*
G01*
X152968825Y-125553954D02*
G75*
G03*
X152968825Y-125553954I-550000J0D01*
G01*
X141438825Y-81373954D02*
G75*
G03*
X141438825Y-81373954I-550000J0D01*
G01*
X98548825Y-198073954D02*
G75*
G03*
X98548825Y-198073954I-550000J0D01*
G01*
X150618825Y-123043954D02*
G75*
G03*
X150618825Y-123043954I-550000J0D01*
G01*
X141448825Y-78803954D02*
G75*
G03*
X141448825Y-78803954I-550000J0D01*
G01*
X127478825Y-76303954D02*
G75*
G03*
X127478825Y-76303954I-550000J0D01*
G01*
X177268825Y-180083954D02*
G75*
G03*
X177268825Y-180083954I-550000J0D01*
G01*
X165153825Y-176393954D02*
G75*
G03*
X165153825Y-176393954I-550000J0D01*
G01*
X152968825Y-138303954D02*
G75*
G03*
X152968825Y-138303954I-550000J0D01*
G01*
X152968825Y-112973954D02*
G75*
G03*
X152968825Y-112973954I-550000J0D01*
G01*
X145348825Y-191393954D02*
G75*
G03*
X145348825Y-191393954I-550000J0D01*
G01*
X165068825Y-216023954D02*
G75*
G03*
X165068825Y-216023954I-550000J0D01*
G01*
X160611825Y-180683954D02*
G75*
G03*
X160611825Y-180683954I-550000J0D01*
G01*
X135175825Y-176393954D02*
G75*
G03*
X135175825Y-176393954I-550000J0D01*
G01*
X145488825Y-210583954D02*
G75*
G03*
X145488825Y-210583954I-550000J0D01*
G01*
X140408825Y-210583954D02*
G75*
G03*
X140408825Y-210583954I-550000J0D01*
G01*
X152968825Y-150883954D02*
G75*
G03*
X152968825Y-150883954I-550000J0D01*
G01*
X137554825Y-218019954D02*
G75*
G03*
X137554825Y-218019954I-550000J0D01*
G01*
X172778825Y-181983954D02*
G75*
G03*
X172778825Y-181983954I-550000J0D01*
G01*
X163116825Y-178343954D02*
G75*
G03*
X163116825Y-178343954I-550000J0D01*
G01*
X83168825Y-195064954D02*
G75*
G03*
X83168825Y-195064954I-550000J0D01*
G01*
X120078825Y-218033954D02*
G75*
G03*
X120078825Y-218033954I-550000J0D01*
G01*
X150618825Y-135903954D02*
G75*
G03*
X150618825Y-135903954I-550000J0D01*
G01*
X89648825Y-223673954D02*
G75*
G03*
X89648825Y-223673954I-550000J0D01*
G01*
X123968825Y-248628954D02*
G75*
G03*
X123968825Y-248628954I-550000J0D01*
G01*
X73168825Y-108693954D02*
G75*
G03*
X73168825Y-108693954I-550000J0D01*
G01*
X112818825Y-200573954D02*
G75*
G03*
X112818825Y-200573954I-550000J0D01*
G01*
X152968825Y-67303954D02*
G75*
G03*
X152968825Y-67303954I-550000J0D01*
G01*
X154938825Y-170223954D02*
G75*
G03*
X154938825Y-170223954I-550000J0D01*
G01*
X142108825Y-92443954D02*
G75*
G03*
X142108825Y-92443954I-550000J0D01*
G01*
X80638825Y-147293954D02*
G75*
G03*
X80638825Y-147293954I-550000J0D01*
G01*
X141428825Y-83953954D02*
G75*
G03*
X141428825Y-83953954I-550000J0D01*
G01*
X194988825Y-220443954D02*
G75*
G03*
X194988825Y-220443954I-550000J0D01*
G01*
X139178825Y-220523954D02*
G75*
G03*
X139178825Y-220523954I-550000J0D01*
G01*
X88208825Y-217523954D02*
G75*
G03*
X88208825Y-217523954I-550000J0D01*
G01*
X152968825Y-100163954D02*
G75*
G03*
X152968825Y-100163954I-550000J0D01*
G01*
X192428825Y-216683954D02*
G75*
G03*
X192428825Y-216683954I-550000J0D01*
G01*
X98578825Y-207543954D02*
G75*
G03*
X98578825Y-207543954I-550000J0D01*
G01*
X171518825Y-176553954D02*
G75*
G03*
X171518825Y-176553954I-550000J0D01*
G01*
X135258825Y-146023954D02*
G75*
G03*
X135258825Y-146023954I-550000J0D01*
G01*
X95898825Y-195683954D02*
G75*
G03*
X95898825Y-195683954I-550000J0D01*
G01*
X156918825Y-176493954D02*
G75*
G03*
X156918825Y-176493954I-550000J0D01*
G01*
X122478825Y-80153954D02*
G75*
G03*
X122478825Y-80153954I-550000J0D01*
G01*
X169972825Y-184983954D02*
G75*
G03*
X169972825Y-184983954I-550000J0D01*
G01*
X170038825Y-219793954D02*
G75*
G03*
X170038825Y-219793954I-550000J0D01*
G01*
X89508825Y-123063954D02*
G75*
G03*
X89508825Y-123063954I-550000J0D01*
G01*
X156878825Y-191443954D02*
G75*
G03*
X156878825Y-191443954I-550000J0D01*
G01*
X150618825Y-148503954D02*
G75*
G03*
X150618825Y-148503954I-550000J0D01*
G01*
X180268825Y-179233954D02*
G75*
G03*
X180268825Y-179233954I-550000J0D01*
G01*
X80638825Y-149663954D02*
G75*
G03*
X80638825Y-149663954I-550000J0D01*
G01*
X124361825Y-215573954D02*
G75*
G03*
X124361825Y-215573954I-550000J0D01*
G01*
X152968825Y-163463954D02*
G75*
G03*
X152968825Y-163463954I-550000J0D01*
G01*
X199938825Y-216683954D02*
G75*
G03*
X199938825Y-216683954I-550000J0D01*
G01*
X158238825Y-182663954D02*
G75*
G03*
X158238825Y-182663954I-550000J0D01*
G01*
X150058825Y-195363954D02*
G75*
G03*
X150058825Y-195363954I-550000J0D01*
G01*
X114958825Y-195683954D02*
G75*
G03*
X114958825Y-195683954I-550000J0D01*
G01*
X137798825Y-74813954D02*
G75*
G03*
X137798825Y-74813954I-550000J0D01*
G01*
X175318825Y-178183954D02*
G75*
G03*
X175318825Y-178183954I-550000J0D01*
G01*
X191038825Y-96243954D02*
G75*
G03*
X191038825Y-96243954I-550000J0D01*
G01*
X85668825Y-83833954D02*
G75*
G03*
X85668825Y-83833954I-550000J0D01*
G01*
X89598825Y-200693954D02*
G75*
G03*
X89598825Y-200693954I-550000J0D01*
G01*
X117538825Y-198053954D02*
G75*
G03*
X117538825Y-198053954I-550000J0D01*
G01*
X135137825Y-221963954D02*
G75*
G03*
X135137825Y-221963954I-550000J0D01*
G01*
X117668825Y-72393954D02*
G75*
G03*
X117668825Y-72393954I-550000J0D01*
G01*
X125630825Y-205883954D02*
G75*
G03*
X125630825Y-205883954I-550000J0D01*
G01*
X105308825Y-204453954D02*
G75*
G03*
X105308825Y-204453954I-550000J0D01*
G01*
X88388825Y-221203954D02*
G75*
G03*
X88388825Y-221203954I-550000J0D01*
G01*
X133988825Y-191393954D02*
G75*
G03*
X133988825Y-191393954I-550000J0D01*
G01*
X150618825Y-161023954D02*
G75*
G03*
X150618825Y-161023954I-550000J0D01*
G01*
X135168825Y-161093954D02*
G75*
G03*
X135168825Y-161093954I-550000J0D01*
G01*
X100398825Y-209453954D02*
G75*
G03*
X100398825Y-209453954I-550000J0D01*
G01*
X174888825Y-277473954D02*
G75*
G03*
X174888825Y-277473954I-550000J0D01*
G01*
X137850000Y-210610000D02*
G75*
G03*
X137850000Y-210610000I-550000J0D01*
G01*
X150618825Y-110573954D02*
G75*
G03*
X150618825Y-110573954I-550000J0D01*
G01*
X153078825Y-193533954D02*
G75*
G03*
X153078825Y-193533954I-550000J0D01*
G01*
X152358825Y-170223954D02*
G75*
G03*
X152358825Y-170223954I-550000J0D01*
G01*
X123968825Y-261328954D02*
G75*
G03*
X123968825Y-261328954I-550000J0D01*
G01*
X85488825Y-191313954D02*
G75*
G03*
X85488825Y-191313954I-550000J0D01*
G01*
X122186825Y-216143954D02*
G75*
G03*
X122186825Y-216143954I-550000J0D01*
G01*
X140158825Y-95183954D02*
G75*
G03*
X140158825Y-95183954I-550000J0D01*
G01*
X103478825Y-217603954D02*
G75*
G03*
X103478825Y-217603954I-550000J0D01*
G01*
X134128825Y-215573954D02*
G75*
G03*
X134128825Y-215573954I-550000J0D01*
G01*
X60978825Y-141876954D02*
G75*
G03*
X60978825Y-141876954I-550000J0D01*
G01*
X166990825Y-259903954D02*
G75*
G03*
X166990825Y-259903954I-550000J0D01*
G01*
X111188825Y-213723954D02*
G75*
G03*
X111188825Y-213723954I-550000J0D01*
G01*
X140908825Y-216143954D02*
G75*
G03*
X140908825Y-216143954I-550000J0D01*
G01*
X83298825Y-258823954D02*
G75*
G03*
X83298825Y-258823954I-550000J0D01*
G01*
X127698825Y-210583954D02*
G75*
G03*
X127698825Y-210583954I-550000J0D01*
G01*
X168684825Y-187993954D02*
G75*
G03*
X168684825Y-187993954I-550000J0D01*
G01*
X150618825Y-72463954D02*
G75*
G03*
X150618825Y-72463954I-550000J0D01*
G01*
X132098825Y-86233954D02*
G75*
G03*
X132098825Y-86233954I-550000J0D01*
G01*
X109268825Y-200573954D02*
G75*
G03*
X109268825Y-200573954I-550000J0D01*
G01*
X188598825Y-221783954D02*
G75*
G03*
X188598825Y-221783954I-550000J0D01*
G01*
X166438825Y-188463954D02*
G75*
G03*
X166438825Y-188463954I-550000J0D01*
G01*
X130148825Y-210583954D02*
G75*
G03*
X130148825Y-210583954I-550000J0D01*
G01*
X152968825Y-74923954D02*
G75*
G03*
X152968825Y-74923954I-550000J0D01*
G01*
X138043825Y-191413954D02*
G75*
G03*
X138043825Y-191413954I-550000J0D01*
G01*
X86318825Y-225113954D02*
G75*
G03*
X86318825Y-225113954I-550000J0D01*
G01*
X109833825Y-85063954D02*
G75*
G03*
X109833825Y-85063954I-550000J0D01*
G01*
X107378825Y-202633954D02*
G75*
G03*
X107378825Y-202633954I-550000J0D01*
G01*
X150618825Y-85153954D02*
G75*
G03*
X150618825Y-85153954I-550000J0D01*
G01*
X135168825Y-161093954D02*
G75*
G03*
X135168825Y-161093954I-550000J0D01*
G01*
X102348825Y-223143954D02*
G75*
G03*
X102348825Y-223143954I-550000J0D01*
G01*
G04 #@! TO.C,C14*
D11*
X103918825Y-303113954D02*
G75*
G03*
X103918825Y-303113954I-800000J0D01*
G01*
X81058825Y-303113954D02*
G75*
G03*
X81058825Y-303113954I-800000J0D01*
G01*
G04 #@! TO.C,R27*
D12*
X216558825Y-159725954D02*
G75*
G03*
X216558825Y-159725954I-600000J0D01*
G01*
X229258825Y-159725954D02*
G75*
G03*
X229258825Y-159725954I-600000J0D01*
G01*
G04 #@! TO.C,C6*
D11*
X74658825Y-309403954D02*
G75*
G03*
X74658825Y-309403954I-800000J0D01*
G01*
X74658825Y-271303954D02*
G75*
G03*
X74658825Y-271303954I-800000J0D01*
G01*
G04 #@! TO.C,U11*
G36*
X174708825Y-78033954D02*
G01*
X173308825Y-78033954D01*
X173308825Y-81833954D01*
X174708825Y-81833954D01*
X174708825Y-78033954D01*
G37*
G36*
X172168825Y-78033954D02*
G01*
X170768825Y-78033954D01*
X170768825Y-81833954D01*
X172168825Y-81833954D01*
X172168825Y-78033954D01*
G37*
G36*
X169628825Y-78033954D02*
G01*
X168228825Y-78033954D01*
X168228825Y-81833954D01*
X169628825Y-81833954D01*
X169628825Y-78033954D01*
G37*
G36*
X167088825Y-78033954D02*
G01*
X165688825Y-78033954D01*
X165688825Y-81833954D01*
X167088825Y-81833954D01*
X167088825Y-78033954D01*
G37*
G36*
X164548825Y-78033954D02*
G01*
X163148825Y-78033954D01*
X163148825Y-81833954D01*
X164548825Y-81833954D01*
X164548825Y-78033954D01*
G37*
G36*
X162008825Y-78033954D02*
G01*
X160608825Y-78033954D01*
X160608825Y-81833954D01*
X162008825Y-81833954D01*
X162008825Y-78033954D01*
G37*
G36*
X159468825Y-78033954D02*
G01*
X158068825Y-78033954D01*
X158068825Y-81833954D01*
X159468825Y-81833954D01*
X159468825Y-78033954D01*
G37*
G36*
X156928825Y-78033954D02*
G01*
X155528825Y-78033954D01*
X155528825Y-81833954D01*
X156928825Y-81833954D01*
X156928825Y-78033954D01*
G37*
G36*
X174708825Y-85653954D02*
G01*
X173308825Y-85653954D01*
X173308825Y-89453954D01*
X174708825Y-89453954D01*
X174708825Y-85653954D01*
G37*
G36*
X172168825Y-85653954D02*
G01*
X170768825Y-85653954D01*
X170768825Y-89453954D01*
X172168825Y-89453954D01*
X172168825Y-85653954D01*
G37*
G36*
X169628825Y-85653954D02*
G01*
X168228825Y-85653954D01*
X168228825Y-89453954D01*
X169628825Y-89453954D01*
X169628825Y-85653954D01*
G37*
G36*
X167088825Y-85653954D02*
G01*
X165688825Y-85653954D01*
X165688825Y-89453954D01*
X167088825Y-89453954D01*
X167088825Y-85653954D01*
G37*
G36*
X164548825Y-85653954D02*
G01*
X163148825Y-85653954D01*
X163148825Y-89453954D01*
X164548825Y-89453954D01*
X164548825Y-85653954D01*
G37*
G36*
X162008825Y-85653954D02*
G01*
X160608825Y-85653954D01*
X160608825Y-89453954D01*
X162008825Y-89453954D01*
X162008825Y-85653954D01*
G37*
G36*
X159468825Y-85653954D02*
G01*
X158068825Y-85653954D01*
X158068825Y-89453954D01*
X159468825Y-89453954D01*
X159468825Y-85653954D01*
G37*
G36*
X156928825Y-85653954D02*
G01*
X155528825Y-85653954D01*
X155528825Y-89453954D01*
X156928825Y-89453954D01*
X156928825Y-85653954D01*
G37*
G04 #@! TO.C,R33*
D12*
X83448825Y-284103954D02*
G75*
G03*
X83448825Y-284103954I-600000J0D01*
G01*
X83448825Y-296803954D02*
G75*
G03*
X83448825Y-296803954I-600000J0D01*
G01*
G04 #@! TO.C,Q1*
D11*
X193298825Y-191338954D02*
G75*
G03*
X193298825Y-191338954I-800000J0D01*
G01*
X191393825Y-189433954D02*
G75*
G03*
X191393825Y-189433954I-800000J0D01*
G01*
X193298825Y-187528954D02*
G75*
G03*
X193298825Y-187528954I-800000J0D01*
G01*
G04 #@! TO.C,U8*
G36*
X174708825Y-116033954D02*
G01*
X173308825Y-116033954D01*
X173308825Y-119833954D01*
X174708825Y-119833954D01*
X174708825Y-116033954D01*
G37*
G36*
X172168825Y-116033954D02*
G01*
X170768825Y-116033954D01*
X170768825Y-119833954D01*
X172168825Y-119833954D01*
X172168825Y-116033954D01*
G37*
G36*
X169628825Y-116033954D02*
G01*
X168228825Y-116033954D01*
X168228825Y-119833954D01*
X169628825Y-119833954D01*
X169628825Y-116033954D01*
G37*
G36*
X167088825Y-116033954D02*
G01*
X165688825Y-116033954D01*
X165688825Y-119833954D01*
X167088825Y-119833954D01*
X167088825Y-116033954D01*
G37*
G36*
X164548825Y-116033954D02*
G01*
X163148825Y-116033954D01*
X163148825Y-119833954D01*
X164548825Y-119833954D01*
X164548825Y-116033954D01*
G37*
G36*
X162008825Y-116033954D02*
G01*
X160608825Y-116033954D01*
X160608825Y-119833954D01*
X162008825Y-119833954D01*
X162008825Y-116033954D01*
G37*
G36*
X159468825Y-116033954D02*
G01*
X158068825Y-116033954D01*
X158068825Y-119833954D01*
X159468825Y-119833954D01*
X159468825Y-116033954D01*
G37*
G36*
X156928825Y-116033954D02*
G01*
X155528825Y-116033954D01*
X155528825Y-119833954D01*
X156928825Y-119833954D01*
X156928825Y-116033954D01*
G37*
G36*
X174708825Y-123653954D02*
G01*
X173308825Y-123653954D01*
X173308825Y-127453954D01*
X174708825Y-127453954D01*
X174708825Y-123653954D01*
G37*
G36*
X172168825Y-123653954D02*
G01*
X170768825Y-123653954D01*
X170768825Y-127453954D01*
X172168825Y-127453954D01*
X172168825Y-123653954D01*
G37*
G36*
X169628825Y-123653954D02*
G01*
X168228825Y-123653954D01*
X168228825Y-127453954D01*
X169628825Y-127453954D01*
X169628825Y-123653954D01*
G37*
G36*
X167088825Y-123653954D02*
G01*
X165688825Y-123653954D01*
X165688825Y-127453954D01*
X167088825Y-127453954D01*
X167088825Y-123653954D01*
G37*
G36*
X164548825Y-123653954D02*
G01*
X163148825Y-123653954D01*
X163148825Y-127453954D01*
X164548825Y-127453954D01*
X164548825Y-123653954D01*
G37*
G36*
X162008825Y-123653954D02*
G01*
X160608825Y-123653954D01*
X160608825Y-127453954D01*
X162008825Y-127453954D01*
X162008825Y-123653954D01*
G37*
G36*
X159468825Y-123653954D02*
G01*
X158068825Y-123653954D01*
X158068825Y-127453954D01*
X159468825Y-127453954D01*
X159468825Y-123653954D01*
G37*
G36*
X156928825Y-123653954D02*
G01*
X155528825Y-123653954D01*
X155528825Y-127453954D01*
X156928825Y-127453954D01*
X156928825Y-123653954D01*
G37*
G04 #@! TO.C,C5*
X127908825Y-234783954D02*
G75*
G03*
X127908825Y-234783954I-800000J0D01*
G01*
X171088825Y-234783954D02*
G75*
G03*
X171088825Y-234783954I-800000J0D01*
G01*
G04 #@! TO.C,R2*
D12*
X130228825Y-80143954D02*
G75*
G03*
X130228825Y-80143954I-600000J0D01*
G01*
X130228825Y-67143954D02*
G75*
G03*
X130228825Y-67143954I-600000J0D01*
G01*
G04 #@! TO.C,R41*
X188608825Y-172343954D02*
G75*
G03*
X188608825Y-172343954I-600000J0D01*
G01*
X188608825Y-185043954D02*
G75*
G03*
X188608825Y-185043954I-600000J0D01*
G01*
D13*
G04 #@! TO.C,P1*
X43048825Y-68473954D02*
X53118825Y-68473954D01*
X53118825Y-68473954D02*
X53118825Y-159713954D01*
X53118825Y-159713954D02*
X43048825Y-159713954D01*
X43048825Y-159713954D02*
X43048825Y-68473954D01*
G36*
X43048825Y-68473954D02*
G01*
X53118825Y-68473954D01*
X53118825Y-159713954D01*
X43048825Y-159713954D01*
X43048825Y-68473954D01*
G37*
G04 #@! TO.C,VR1*
G36*
X117138825Y-294783954D02*
G01*
X114478825Y-294783954D01*
X114478825Y-297983954D01*
X117138825Y-297983954D01*
X117138825Y-294783954D01*
G37*
G36*
X117138825Y-281053954D02*
G01*
X114478825Y-281053954D01*
X114478825Y-284253954D01*
X117138825Y-284253954D01*
X117138825Y-281053954D01*
G37*
G36*
X106338825Y-295193954D02*
G01*
X103338825Y-295193954D01*
X103338825Y-294008954D01*
X106338825Y-294008954D01*
X106338825Y-295193954D01*
G37*
G36*
X106338825Y-285008954D02*
G01*
X103338825Y-285008954D01*
X103338825Y-283823954D01*
X106338825Y-283823954D01*
X106338825Y-285008954D01*
G37*
D11*
X117938825Y-296383954D02*
G75*
G03*
X117938825Y-296383954I-800000J0D01*
G01*
X117938825Y-282653954D02*
G75*
G03*
X117938825Y-282653954I-800000J0D01*
G01*
X115278825Y-296383954D02*
G75*
G03*
X115278825Y-296383954I-800000J0D01*
G01*
X115278825Y-282653954D02*
G75*
G03*
X115278825Y-282653954I-800000J0D01*
G01*
D14*
X105588825Y-295193954D02*
G75*
G03*
X105588825Y-295193954I-750000J0D01*
G01*
X105588825Y-294008954D02*
G75*
G03*
X105588825Y-294008954I-750000J0D01*
G01*
X105588825Y-285008954D02*
G75*
G03*
X105588825Y-285008954I-750000J0D01*
G01*
X105588825Y-283823954D02*
G75*
G03*
X105588825Y-283823954I-750000J0D01*
G01*
G04 #@! TO.C,U26*
G36*
X161388825Y-264983954D02*
G01*
X158988825Y-264983954D01*
X158988825Y-249743954D01*
X161388825Y-249743954D01*
X161388825Y-264983954D01*
G37*
G36*
X153768825Y-264983954D02*
G01*
X151368825Y-264983954D01*
X151368825Y-249743954D01*
X153768825Y-249743954D01*
X153768825Y-264983954D01*
G37*
D12*
X160788825Y-264983954D02*
G75*
G03*
X160788825Y-264983954I-600000J0D01*
G01*
X160788825Y-249743954D02*
G75*
G03*
X160788825Y-249743954I-600000J0D01*
G01*
X153168825Y-264983954D02*
G75*
G03*
X153168825Y-264983954I-600000J0D01*
G01*
X153168825Y-249743954D02*
G75*
G03*
X153168825Y-249743954I-600000J0D01*
G01*
G04 #@! TO.C,R6*
X141748825Y-248628954D02*
G75*
G03*
X141748825Y-248628954I-600000J0D01*
G01*
X141748825Y-261328954D02*
G75*
G03*
X141748825Y-261328954I-600000J0D01*
G01*
G04 #@! TO.C,R36*
X85938825Y-258743954D02*
G75*
G03*
X85938825Y-258743954I-600000J0D01*
G01*
X98638825Y-258743954D02*
G75*
G03*
X98638825Y-258743954I-600000J0D01*
G01*
G04 #@! TO.C,R49*
D15*
X67118825Y-298123954D02*
G75*
G03*
X67118825Y-298123954I-700000J0D01*
G01*
X67118825Y-280123954D02*
G75*
G03*
X67118825Y-280123954I-700000J0D01*
G01*
G04 #@! TO.C,U10*
G36*
X174708825Y-90643954D02*
G01*
X173308825Y-90643954D01*
X173308825Y-94443954D01*
X174708825Y-94443954D01*
X174708825Y-90643954D01*
G37*
G36*
X172168825Y-90643954D02*
G01*
X170768825Y-90643954D01*
X170768825Y-94443954D01*
X172168825Y-94443954D01*
X172168825Y-90643954D01*
G37*
G36*
X169628825Y-90643954D02*
G01*
X168228825Y-90643954D01*
X168228825Y-94443954D01*
X169628825Y-94443954D01*
X169628825Y-90643954D01*
G37*
G36*
X167088825Y-90643954D02*
G01*
X165688825Y-90643954D01*
X165688825Y-94443954D01*
X167088825Y-94443954D01*
X167088825Y-90643954D01*
G37*
G36*
X164548825Y-90643954D02*
G01*
X163148825Y-90643954D01*
X163148825Y-94443954D01*
X164548825Y-94443954D01*
X164548825Y-90643954D01*
G37*
G36*
X162008825Y-90643954D02*
G01*
X160608825Y-90643954D01*
X160608825Y-94443954D01*
X162008825Y-94443954D01*
X162008825Y-90643954D01*
G37*
G36*
X159468825Y-90643954D02*
G01*
X158068825Y-90643954D01*
X158068825Y-94443954D01*
X159468825Y-94443954D01*
X159468825Y-90643954D01*
G37*
G36*
X156928825Y-90643954D02*
G01*
X155528825Y-90643954D01*
X155528825Y-94443954D01*
X156928825Y-94443954D01*
X156928825Y-90643954D01*
G37*
G36*
X174708825Y-98263954D02*
G01*
X173308825Y-98263954D01*
X173308825Y-102063954D01*
X174708825Y-102063954D01*
X174708825Y-98263954D01*
G37*
G36*
X172168825Y-98263954D02*
G01*
X170768825Y-98263954D01*
X170768825Y-102063954D01*
X172168825Y-102063954D01*
X172168825Y-98263954D01*
G37*
G36*
X169628825Y-98263954D02*
G01*
X168228825Y-98263954D01*
X168228825Y-102063954D01*
X169628825Y-102063954D01*
X169628825Y-98263954D01*
G37*
G36*
X167088825Y-98263954D02*
G01*
X165688825Y-98263954D01*
X165688825Y-102063954D01*
X167088825Y-102063954D01*
X167088825Y-98263954D01*
G37*
G36*
X164548825Y-98263954D02*
G01*
X163148825Y-98263954D01*
X163148825Y-102063954D01*
X164548825Y-102063954D01*
X164548825Y-98263954D01*
G37*
G36*
X162008825Y-98263954D02*
G01*
X160608825Y-98263954D01*
X160608825Y-102063954D01*
X162008825Y-102063954D01*
X162008825Y-98263954D01*
G37*
G36*
X159468825Y-98263954D02*
G01*
X158068825Y-98263954D01*
X158068825Y-102063954D01*
X159468825Y-102063954D01*
X159468825Y-98263954D01*
G37*
G36*
X156928825Y-98263954D02*
G01*
X155528825Y-98263954D01*
X155528825Y-102063954D01*
X156928825Y-102063954D01*
X156928825Y-98263954D01*
G37*
G04 #@! TO.C,R3*
D12*
X125088825Y-80143954D02*
G75*
G03*
X125088825Y-80143954I-600000J0D01*
G01*
X125088825Y-67143954D02*
G75*
G03*
X125088825Y-67143954I-600000J0D01*
G01*
G04 #@! TO.C,U17*
G36*
X207748825Y-161693954D02*
G01*
X203948825Y-161693954D01*
X203948825Y-160293954D01*
X207748825Y-160293954D01*
X207748825Y-161693954D01*
G37*
G36*
X207748825Y-159153954D02*
G01*
X203948825Y-159153954D01*
X203948825Y-157753954D01*
X207748825Y-157753954D01*
X207748825Y-159153954D01*
G37*
G36*
X207748825Y-154073954D02*
G01*
X203948825Y-154073954D01*
X203948825Y-152673954D01*
X207748825Y-152673954D01*
X207748825Y-154073954D01*
G37*
G36*
X207748825Y-151533954D02*
G01*
X203948825Y-151533954D01*
X203948825Y-150133954D01*
X207748825Y-150133954D01*
X207748825Y-151533954D01*
G37*
G36*
X207748825Y-148993954D02*
G01*
X203948825Y-148993954D01*
X203948825Y-147593954D01*
X207748825Y-147593954D01*
X207748825Y-148993954D01*
G37*
G36*
X199428825Y-163533954D02*
G01*
X197028825Y-163533954D01*
X197028825Y-148293954D01*
X199428825Y-148293954D01*
X199428825Y-163533954D01*
G37*
X206448825Y-163533954D02*
G75*
G03*
X206448825Y-163533954I-600000J0D01*
G01*
X206448825Y-155913954D02*
G75*
G03*
X206448825Y-155913954I-600000J0D01*
G01*
X198828825Y-163533954D02*
G75*
G03*
X198828825Y-163533954I-600000J0D01*
G01*
X198828825Y-148293954D02*
G75*
G03*
X198828825Y-148293954I-600000J0D01*
G01*
G04 #@! TO.C,R48*
D15*
X61988825Y-301953954D02*
G75*
G03*
X61988825Y-301953954I-700000J0D01*
G01*
X61988825Y-283953954D02*
G75*
G03*
X61988825Y-283953954I-700000J0D01*
G01*
G04 #@! TO.C,R29*
D12*
X216558825Y-154645954D02*
G75*
G03*
X216558825Y-154645954I-600000J0D01*
G01*
X229258825Y-154645954D02*
G75*
G03*
X229258825Y-154645954I-600000J0D01*
G01*
G04 #@! TO.C,U24*
G36*
X161338825Y-225763954D02*
G01*
X158938825Y-225763954D01*
X158938825Y-207983954D01*
X161338825Y-207983954D01*
X161338825Y-225763954D01*
G37*
G36*
X153718825Y-225763954D02*
G01*
X151318825Y-225763954D01*
X151318825Y-207983954D01*
X153718825Y-207983954D01*
X153718825Y-225763954D01*
G37*
X160738825Y-225763954D02*
G75*
G03*
X160738825Y-225763954I-600000J0D01*
G01*
X160738825Y-207983954D02*
G75*
G03*
X160738825Y-207983954I-600000J0D01*
G01*
X153118825Y-225763954D02*
G75*
G03*
X153118825Y-225763954I-600000J0D01*
G01*
X153118825Y-207983954D02*
G75*
G03*
X153118825Y-207983954I-600000J0D01*
G01*
G04 #@! TO.C,R16*
X136708825Y-261328954D02*
G75*
G03*
X136708825Y-261328954I-600000J0D01*
G01*
X136708825Y-248628954D02*
G75*
G03*
X136708825Y-248628954I-600000J0D01*
G01*
G04 #@! TO.C,R10*
X130348825Y-313093954D02*
G75*
G03*
X130348825Y-313093954I-600000J0D01*
G01*
X117648825Y-313093954D02*
G75*
G03*
X117648825Y-313093954I-600000J0D01*
G01*
G04 #@! TO.C,U5*
G36*
X174708825Y-153943954D02*
G01*
X173308825Y-153943954D01*
X173308825Y-157743954D01*
X174708825Y-157743954D01*
X174708825Y-153943954D01*
G37*
G36*
X172168825Y-153943954D02*
G01*
X170768825Y-153943954D01*
X170768825Y-157743954D01*
X172168825Y-157743954D01*
X172168825Y-153943954D01*
G37*
G36*
X169628825Y-153943954D02*
G01*
X168228825Y-153943954D01*
X168228825Y-157743954D01*
X169628825Y-157743954D01*
X169628825Y-153943954D01*
G37*
G36*
X167088825Y-153943954D02*
G01*
X165688825Y-153943954D01*
X165688825Y-157743954D01*
X167088825Y-157743954D01*
X167088825Y-153943954D01*
G37*
G36*
X164548825Y-153943954D02*
G01*
X163148825Y-153943954D01*
X163148825Y-157743954D01*
X164548825Y-157743954D01*
X164548825Y-153943954D01*
G37*
G36*
X162008825Y-153943954D02*
G01*
X160608825Y-153943954D01*
X160608825Y-157743954D01*
X162008825Y-157743954D01*
X162008825Y-153943954D01*
G37*
G36*
X159468825Y-153943954D02*
G01*
X158068825Y-153943954D01*
X158068825Y-157743954D01*
X159468825Y-157743954D01*
X159468825Y-153943954D01*
G37*
G36*
X156928825Y-153943954D02*
G01*
X155528825Y-153943954D01*
X155528825Y-157743954D01*
X156928825Y-157743954D01*
X156928825Y-153943954D01*
G37*
G36*
X174708825Y-161563954D02*
G01*
X173308825Y-161563954D01*
X173308825Y-165363954D01*
X174708825Y-165363954D01*
X174708825Y-161563954D01*
G37*
G36*
X172168825Y-161563954D02*
G01*
X170768825Y-161563954D01*
X170768825Y-165363954D01*
X172168825Y-165363954D01*
X172168825Y-161563954D01*
G37*
G36*
X169628825Y-161563954D02*
G01*
X168228825Y-161563954D01*
X168228825Y-165363954D01*
X169628825Y-165363954D01*
X169628825Y-161563954D01*
G37*
G36*
X167088825Y-161563954D02*
G01*
X165688825Y-161563954D01*
X165688825Y-165363954D01*
X167088825Y-165363954D01*
X167088825Y-161563954D01*
G37*
G36*
X164548825Y-161563954D02*
G01*
X163148825Y-161563954D01*
X163148825Y-165363954D01*
X164548825Y-165363954D01*
X164548825Y-161563954D01*
G37*
G36*
X162008825Y-161563954D02*
G01*
X160608825Y-161563954D01*
X160608825Y-165363954D01*
X162008825Y-165363954D01*
X162008825Y-161563954D01*
G37*
G36*
X159468825Y-161563954D02*
G01*
X158068825Y-161563954D01*
X158068825Y-165363954D01*
X159468825Y-165363954D01*
X159468825Y-161563954D01*
G37*
G36*
X156928825Y-161563954D02*
G01*
X155528825Y-161563954D01*
X155528825Y-165363954D01*
X156928825Y-165363954D01*
X156928825Y-161563954D01*
G37*
G04 #@! TO.C,C18*
D16*
X132748825Y-80143954D02*
G75*
G03*
X132748825Y-80143954I-650000J0D01*
G01*
X132748825Y-67143954D02*
G75*
G03*
X132748825Y-67143954I-650000J0D01*
G01*
G04 #@! TO.C,CR1*
X98688825Y-269023954D02*
G75*
G03*
X98688825Y-269023954I-650000J0D01*
G01*
X85988825Y-269023954D02*
G75*
G03*
X85988825Y-269023954I-650000J0D01*
G01*
G04 #@! TO.C,C10*
D11*
X136918825Y-285823954D02*
G75*
G03*
X136918825Y-285823954I-800000J0D01*
G01*
X136918825Y-308683954D02*
G75*
G03*
X136918825Y-308683954I-800000J0D01*
G01*
G04 #@! TO.C,R31*
D12*
X229258825Y-162263954D02*
G75*
G03*
X229258825Y-162263954I-600000J0D01*
G01*
X229258825Y-174963954D02*
G75*
G03*
X229258825Y-174963954I-600000J0D01*
G01*
G04 #@! TO.C,CR3*
D16*
X101208825Y-296903954D02*
G75*
G03*
X101208825Y-296903954I-650000J0D01*
G01*
X88508825Y-296903954D02*
G75*
G03*
X88508825Y-296903954I-650000J0D01*
G01*
G04 #@! TO.C,R44*
D12*
X207758825Y-172343954D02*
G75*
G03*
X207758825Y-172343954I-600000J0D01*
G01*
X207758825Y-185043954D02*
G75*
G03*
X207758825Y-185043954I-600000J0D01*
G01*
G04 #@! TO.C,R1*
X119958825Y-80143954D02*
G75*
G03*
X119958825Y-80143954I-600000J0D01*
G01*
X119958825Y-67143954D02*
G75*
G03*
X119958825Y-67143954I-600000J0D01*
G01*
G04 #@! TO.C,R50*
X121478825Y-276333954D02*
G75*
G03*
X121478825Y-276333954I-600000J0D01*
G01*
X108778825Y-276333954D02*
G75*
G03*
X108778825Y-276333954I-600000J0D01*
G01*
G04 #@! TO.C,J1*
G36*
X193218825Y-227563954D02*
G01*
X228778825Y-227563954D01*
X228778825Y-230563954D01*
X193218825Y-230563954D01*
X193218825Y-227563954D01*
G37*
D14*
X193968825Y-229063954D02*
G75*
G03*
X193968825Y-229063954I-750000J0D01*
G01*
X229528825Y-229063954D02*
G75*
G03*
X229528825Y-229063954I-750000J0D01*
G01*
G04 #@! TO.C,U23*
G36*
X231858825Y-197003954D02*
G01*
X235658825Y-197003954D01*
X235658825Y-198403954D01*
X231858825Y-198403954D01*
X231858825Y-197003954D01*
G37*
G36*
X231858825Y-199543954D02*
G01*
X235658825Y-199543954D01*
X235658825Y-200943954D01*
X231858825Y-200943954D01*
X231858825Y-199543954D01*
G37*
G36*
X231858825Y-202083954D02*
G01*
X235658825Y-202083954D01*
X235658825Y-203483954D01*
X231858825Y-203483954D01*
X231858825Y-202083954D01*
G37*
G36*
X231858825Y-204623954D02*
G01*
X235658825Y-204623954D01*
X235658825Y-206023954D01*
X231858825Y-206023954D01*
X231858825Y-204623954D01*
G37*
G36*
X231858825Y-207163954D02*
G01*
X235658825Y-207163954D01*
X235658825Y-208563954D01*
X231858825Y-208563954D01*
X231858825Y-207163954D01*
G37*
G36*
X231858825Y-209703954D02*
G01*
X235658825Y-209703954D01*
X235658825Y-211103954D01*
X231858825Y-211103954D01*
X231858825Y-209703954D01*
G37*
G36*
X231858825Y-212243954D02*
G01*
X235658825Y-212243954D01*
X235658825Y-213643954D01*
X231858825Y-213643954D01*
X231858825Y-212243954D01*
G37*
G36*
X240178825Y-197703954D02*
G01*
X242578825Y-197703954D01*
X242578825Y-212943954D01*
X240178825Y-212943954D01*
X240178825Y-197703954D01*
G37*
D12*
X241978825Y-197703954D02*
G75*
G03*
X241978825Y-197703954I-600000J0D01*
G01*
X241978825Y-212943954D02*
G75*
G03*
X241978825Y-212943954I-600000J0D01*
G01*
G04 #@! TO.C,U25*
G36*
X161468825Y-286483954D02*
G01*
X159068825Y-286483954D01*
X159068825Y-271243954D01*
X161468825Y-271243954D01*
X161468825Y-286483954D01*
G37*
G36*
X153848825Y-286483954D02*
G01*
X151448825Y-286483954D01*
X151448825Y-271243954D01*
X153848825Y-271243954D01*
X153848825Y-286483954D01*
G37*
X160868825Y-286483954D02*
G75*
G03*
X160868825Y-286483954I-600000J0D01*
G01*
X160868825Y-271243954D02*
G75*
G03*
X160868825Y-271243954I-600000J0D01*
G01*
X153248825Y-286483954D02*
G75*
G03*
X153248825Y-286483954I-600000J0D01*
G01*
X153248825Y-271243954D02*
G75*
G03*
X153248825Y-271243954I-600000J0D01*
G01*
G04 #@! TO.C,Q7*
D11*
X143128825Y-244043954D02*
G75*
G03*
X143128825Y-244043954I-800000J0D01*
G01*
X141223825Y-245948954D02*
G75*
G03*
X141223825Y-245948954I-800000J0D01*
G01*
X139318825Y-244043954D02*
G75*
G03*
X139318825Y-244043954I-800000J0D01*
G01*
G04 #@! TO.C,CR8*
D16*
X120038825Y-64463954D02*
G75*
G03*
X120038825Y-64463954I-650000J0D01*
G01*
X132738825Y-64463954D02*
G75*
G03*
X132738825Y-64463954I-650000J0D01*
G01*
G04 #@! TO.C,U7*
G36*
X174708825Y-128783954D02*
G01*
X173308825Y-128783954D01*
X173308825Y-132583954D01*
X174708825Y-132583954D01*
X174708825Y-128783954D01*
G37*
G36*
X172168825Y-128783954D02*
G01*
X170768825Y-128783954D01*
X170768825Y-132583954D01*
X172168825Y-132583954D01*
X172168825Y-128783954D01*
G37*
G36*
X169628825Y-128783954D02*
G01*
X168228825Y-128783954D01*
X168228825Y-132583954D01*
X169628825Y-132583954D01*
X169628825Y-128783954D01*
G37*
G36*
X167088825Y-128783954D02*
G01*
X165688825Y-128783954D01*
X165688825Y-132583954D01*
X167088825Y-132583954D01*
X167088825Y-128783954D01*
G37*
G36*
X164548825Y-128783954D02*
G01*
X163148825Y-128783954D01*
X163148825Y-132583954D01*
X164548825Y-132583954D01*
X164548825Y-128783954D01*
G37*
G36*
X162008825Y-128783954D02*
G01*
X160608825Y-128783954D01*
X160608825Y-132583954D01*
X162008825Y-132583954D01*
X162008825Y-128783954D01*
G37*
G36*
X159468825Y-128783954D02*
G01*
X158068825Y-128783954D01*
X158068825Y-132583954D01*
X159468825Y-132583954D01*
X159468825Y-128783954D01*
G37*
G36*
X156928825Y-128783954D02*
G01*
X155528825Y-128783954D01*
X155528825Y-132583954D01*
X156928825Y-132583954D01*
X156928825Y-128783954D01*
G37*
G36*
X174708825Y-136403954D02*
G01*
X173308825Y-136403954D01*
X173308825Y-140203954D01*
X174708825Y-140203954D01*
X174708825Y-136403954D01*
G37*
G36*
X172168825Y-136403954D02*
G01*
X170768825Y-136403954D01*
X170768825Y-140203954D01*
X172168825Y-140203954D01*
X172168825Y-136403954D01*
G37*
G36*
X169628825Y-136403954D02*
G01*
X168228825Y-136403954D01*
X168228825Y-140203954D01*
X169628825Y-140203954D01*
X169628825Y-136403954D01*
G37*
G36*
X167088825Y-136403954D02*
G01*
X165688825Y-136403954D01*
X165688825Y-140203954D01*
X167088825Y-140203954D01*
X167088825Y-136403954D01*
G37*
G36*
X164548825Y-136403954D02*
G01*
X163148825Y-136403954D01*
X163148825Y-140203954D01*
X164548825Y-140203954D01*
X164548825Y-136403954D01*
G37*
G36*
X162008825Y-136403954D02*
G01*
X160608825Y-136403954D01*
X160608825Y-140203954D01*
X162008825Y-140203954D01*
X162008825Y-136403954D01*
G37*
G36*
X159468825Y-136403954D02*
G01*
X158068825Y-136403954D01*
X158068825Y-140203954D01*
X159468825Y-140203954D01*
X159468825Y-136403954D01*
G37*
G36*
X156928825Y-136403954D02*
G01*
X155528825Y-136403954D01*
X155528825Y-140203954D01*
X156928825Y-140203954D01*
X156928825Y-136403954D01*
G37*
G04 #@! TO.C,R32*
D12*
X235518825Y-149563954D02*
G75*
G03*
X235518825Y-149563954I-600000J0D01*
G01*
X235518825Y-162263954D02*
G75*
G03*
X235518825Y-162263954I-600000J0D01*
G01*
G04 #@! TO.C,Q5*
D11*
X218698825Y-191338954D02*
G75*
G03*
X218698825Y-191338954I-800000J0D01*
G01*
X216793825Y-189433954D02*
G75*
G03*
X216793825Y-189433954I-800000J0D01*
G01*
X218698825Y-187528954D02*
G75*
G03*
X218698825Y-187528954I-800000J0D01*
G01*
G04 #@! TO.C,R28*
D12*
X216558825Y-157185954D02*
G75*
G03*
X216558825Y-157185954I-600000J0D01*
G01*
X229258825Y-157185954D02*
G75*
G03*
X229258825Y-157185954I-600000J0D01*
G01*
G04 #@! TO.C,Q6*
D11*
X224990825Y-191338954D02*
G75*
G03*
X224990825Y-191338954I-800000J0D01*
G01*
X223085825Y-189433954D02*
G75*
G03*
X223085825Y-189433954I-800000J0D01*
G01*
X224990825Y-187528954D02*
G75*
G03*
X224990825Y-187528954I-800000J0D01*
G01*
G04 #@! TO.C,R30*
D12*
X216558825Y-152105954D02*
G75*
G03*
X216558825Y-152105954I-600000J0D01*
G01*
X229258825Y-152105954D02*
G75*
G03*
X229258825Y-152105954I-600000J0D01*
G01*
G04 #@! TO.C,C8*
D11*
X143298825Y-308713954D02*
G75*
G03*
X143298825Y-308713954I-800000J0D01*
G01*
X143298825Y-273153954D02*
G75*
G03*
X143298825Y-273153954I-800000J0D01*
G01*
G04 #@! TO.C,R40*
D12*
X126508825Y-248628954D02*
G75*
G03*
X126508825Y-248628954I-600000J0D01*
G01*
X126508825Y-261328954D02*
G75*
G03*
X126508825Y-261328954I-600000J0D01*
G01*
G04 #@! TO.C,U9*
G36*
X174708825Y-103453954D02*
G01*
X173308825Y-103453954D01*
X173308825Y-107253954D01*
X174708825Y-107253954D01*
X174708825Y-103453954D01*
G37*
G36*
X172168825Y-103453954D02*
G01*
X170768825Y-103453954D01*
X170768825Y-107253954D01*
X172168825Y-107253954D01*
X172168825Y-103453954D01*
G37*
G36*
X169628825Y-103453954D02*
G01*
X168228825Y-103453954D01*
X168228825Y-107253954D01*
X169628825Y-107253954D01*
X169628825Y-103453954D01*
G37*
G36*
X167088825Y-103453954D02*
G01*
X165688825Y-103453954D01*
X165688825Y-107253954D01*
X167088825Y-107253954D01*
X167088825Y-103453954D01*
G37*
G36*
X164548825Y-103453954D02*
G01*
X163148825Y-103453954D01*
X163148825Y-107253954D01*
X164548825Y-107253954D01*
X164548825Y-103453954D01*
G37*
G36*
X162008825Y-103453954D02*
G01*
X160608825Y-103453954D01*
X160608825Y-107253954D01*
X162008825Y-107253954D01*
X162008825Y-103453954D01*
G37*
G36*
X159468825Y-103453954D02*
G01*
X158068825Y-103453954D01*
X158068825Y-107253954D01*
X159468825Y-107253954D01*
X159468825Y-103453954D01*
G37*
G36*
X156928825Y-103453954D02*
G01*
X155528825Y-103453954D01*
X155528825Y-107253954D01*
X156928825Y-107253954D01*
X156928825Y-103453954D01*
G37*
G36*
X174708825Y-111073954D02*
G01*
X173308825Y-111073954D01*
X173308825Y-114873954D01*
X174708825Y-114873954D01*
X174708825Y-111073954D01*
G37*
G36*
X172168825Y-111073954D02*
G01*
X170768825Y-111073954D01*
X170768825Y-114873954D01*
X172168825Y-114873954D01*
X172168825Y-111073954D01*
G37*
G36*
X169628825Y-111073954D02*
G01*
X168228825Y-111073954D01*
X168228825Y-114873954D01*
X169628825Y-114873954D01*
X169628825Y-111073954D01*
G37*
G36*
X167088825Y-111073954D02*
G01*
X165688825Y-111073954D01*
X165688825Y-114873954D01*
X167088825Y-114873954D01*
X167088825Y-111073954D01*
G37*
G36*
X164548825Y-111073954D02*
G01*
X163148825Y-111073954D01*
X163148825Y-114873954D01*
X164548825Y-114873954D01*
X164548825Y-111073954D01*
G37*
G36*
X162008825Y-111073954D02*
G01*
X160608825Y-111073954D01*
X160608825Y-114873954D01*
X162008825Y-114873954D01*
X162008825Y-111073954D01*
G37*
G36*
X159468825Y-111073954D02*
G01*
X158068825Y-111073954D01*
X158068825Y-114873954D01*
X159468825Y-114873954D01*
X159468825Y-111073954D01*
G37*
G36*
X156928825Y-111073954D02*
G01*
X155528825Y-111073954D01*
X155528825Y-114873954D01*
X156928825Y-114873954D01*
X156928825Y-111073954D01*
G37*
G04 #@! TO.C,U21*
G36*
X207078825Y-197003954D02*
G01*
X210878825Y-197003954D01*
X210878825Y-198403954D01*
X207078825Y-198403954D01*
X207078825Y-197003954D01*
G37*
G36*
X207078825Y-199543954D02*
G01*
X210878825Y-199543954D01*
X210878825Y-200943954D01*
X207078825Y-200943954D01*
X207078825Y-199543954D01*
G37*
G36*
X207078825Y-202083954D02*
G01*
X210878825Y-202083954D01*
X210878825Y-203483954D01*
X207078825Y-203483954D01*
X207078825Y-202083954D01*
G37*
G36*
X207078825Y-204623954D02*
G01*
X210878825Y-204623954D01*
X210878825Y-206023954D01*
X207078825Y-206023954D01*
X207078825Y-204623954D01*
G37*
G36*
X207078825Y-207163954D02*
G01*
X210878825Y-207163954D01*
X210878825Y-208563954D01*
X207078825Y-208563954D01*
X207078825Y-207163954D01*
G37*
G36*
X207078825Y-209703954D02*
G01*
X210878825Y-209703954D01*
X210878825Y-211103954D01*
X207078825Y-211103954D01*
X207078825Y-209703954D01*
G37*
G36*
X207078825Y-212243954D02*
G01*
X210878825Y-212243954D01*
X210878825Y-213643954D01*
X207078825Y-213643954D01*
X207078825Y-212243954D01*
G37*
G36*
X214698825Y-197003954D02*
G01*
X218498825Y-197003954D01*
X218498825Y-198403954D01*
X214698825Y-198403954D01*
X214698825Y-197003954D01*
G37*
G36*
X214698825Y-199543954D02*
G01*
X218498825Y-199543954D01*
X218498825Y-200943954D01*
X214698825Y-200943954D01*
X214698825Y-199543954D01*
G37*
G36*
X214698825Y-202083954D02*
G01*
X218498825Y-202083954D01*
X218498825Y-203483954D01*
X214698825Y-203483954D01*
X214698825Y-202083954D01*
G37*
G36*
X214698825Y-204623954D02*
G01*
X218498825Y-204623954D01*
X218498825Y-206023954D01*
X214698825Y-206023954D01*
X214698825Y-204623954D01*
G37*
G36*
X214698825Y-207163954D02*
G01*
X218498825Y-207163954D01*
X218498825Y-208563954D01*
X214698825Y-208563954D01*
X214698825Y-207163954D01*
G37*
G36*
X214698825Y-209703954D02*
G01*
X218498825Y-209703954D01*
X218498825Y-211103954D01*
X214698825Y-211103954D01*
X214698825Y-209703954D01*
G37*
G36*
X214698825Y-212243954D02*
G01*
X218498825Y-212243954D01*
X218498825Y-213643954D01*
X214698825Y-213643954D01*
X214698825Y-212243954D01*
G37*
G04 #@! TO.C,C3*
D11*
X130528825Y-316233954D02*
G75*
G03*
X130528825Y-316233954I-800000J0D01*
G01*
X168628825Y-316233954D02*
G75*
G03*
X168628825Y-316233954I-800000J0D01*
G01*
G04 #@! TO.C,C16*
X148168825Y-138363954D02*
G75*
G03*
X148168825Y-138363954I-800000J0D01*
G01*
X148168825Y-102803954D02*
G75*
G03*
X148168825Y-102803954I-800000J0D01*
G01*
G04 #@! TO.C,C11*
X107688825Y-301903954D02*
G75*
G03*
X107688825Y-301903954I-800000J0D01*
G01*
X130548825Y-301903954D02*
G75*
G03*
X130548825Y-301903954I-800000J0D01*
G01*
G04 #@! TO.C,CR4*
D16*
X88508825Y-299493954D02*
G75*
G03*
X88508825Y-299493954I-650000J0D01*
G01*
X101208825Y-299493954D02*
G75*
G03*
X101208825Y-299493954I-650000J0D01*
G01*
G04 #@! TO.C,R18*
D12*
X191188825Y-185043954D02*
G75*
G03*
X191188825Y-185043954I-600000J0D01*
G01*
X191188825Y-172343954D02*
G75*
G03*
X191188825Y-172343954I-600000J0D01*
G01*
G04 #@! TO.C,C2*
D11*
X172448825Y-317443954D02*
G75*
G03*
X172448825Y-317443954I-800000J0D01*
G01*
X172448825Y-279343954D02*
G75*
G03*
X172448825Y-279343954I-800000J0D01*
G01*
G04 #@! TO.C,R11*
D12*
X132978825Y-299383954D02*
G75*
G03*
X132978825Y-299383954I-600000J0D01*
G01*
X132978825Y-312083954D02*
G75*
G03*
X132978825Y-312083954I-600000J0D01*
G01*
G04 #@! TO.C,U12*
G36*
X174008825Y-66103954D02*
G01*
X156228825Y-66103954D01*
X156228825Y-68503954D01*
X174008825Y-68503954D01*
X174008825Y-66103954D01*
G37*
G36*
X174708825Y-73023954D02*
G01*
X173308825Y-73023954D01*
X173308825Y-76823954D01*
X174708825Y-76823954D01*
X174708825Y-73023954D01*
G37*
G36*
X172168825Y-73023954D02*
G01*
X170768825Y-73023954D01*
X170768825Y-76823954D01*
X172168825Y-76823954D01*
X172168825Y-73023954D01*
G37*
G36*
X169628825Y-73023954D02*
G01*
X168228825Y-73023954D01*
X168228825Y-76823954D01*
X169628825Y-76823954D01*
X169628825Y-73023954D01*
G37*
G36*
X167088825Y-73023954D02*
G01*
X165688825Y-73023954D01*
X165688825Y-76823954D01*
X167088825Y-76823954D01*
X167088825Y-73023954D01*
G37*
G36*
X164548825Y-73023954D02*
G01*
X163148825Y-73023954D01*
X163148825Y-76823954D01*
X164548825Y-76823954D01*
X164548825Y-73023954D01*
G37*
G36*
X162008825Y-73023954D02*
G01*
X160608825Y-73023954D01*
X160608825Y-76823954D01*
X162008825Y-76823954D01*
X162008825Y-73023954D01*
G37*
G36*
X159468825Y-73023954D02*
G01*
X158068825Y-73023954D01*
X158068825Y-76823954D01*
X159468825Y-76823954D01*
X159468825Y-73023954D01*
G37*
G36*
X156928825Y-73023954D02*
G01*
X155528825Y-73023954D01*
X155528825Y-76823954D01*
X156928825Y-76823954D01*
X156928825Y-73023954D01*
G37*
X174608825Y-67303954D02*
G75*
G03*
X174608825Y-67303954I-600000J0D01*
G01*
X156828825Y-67303954D02*
G75*
G03*
X156828825Y-67303954I-600000J0D01*
G01*
G04 #@! TO.C,U22*
G36*
X221048825Y-197003954D02*
G01*
X224848825Y-197003954D01*
X224848825Y-198403954D01*
X221048825Y-198403954D01*
X221048825Y-197003954D01*
G37*
G36*
X221048825Y-199543954D02*
G01*
X224848825Y-199543954D01*
X224848825Y-200943954D01*
X221048825Y-200943954D01*
X221048825Y-199543954D01*
G37*
G36*
X221048825Y-202083954D02*
G01*
X224848825Y-202083954D01*
X224848825Y-203483954D01*
X221048825Y-203483954D01*
X221048825Y-202083954D01*
G37*
G36*
X221048825Y-204623954D02*
G01*
X224848825Y-204623954D01*
X224848825Y-206023954D01*
X221048825Y-206023954D01*
X221048825Y-204623954D01*
G37*
G36*
X221048825Y-207163954D02*
G01*
X224848825Y-207163954D01*
X224848825Y-208563954D01*
X221048825Y-208563954D01*
X221048825Y-207163954D01*
G37*
G36*
X221048825Y-209703954D02*
G01*
X224848825Y-209703954D01*
X224848825Y-211103954D01*
X221048825Y-211103954D01*
X221048825Y-209703954D01*
G37*
G36*
X221048825Y-212243954D02*
G01*
X224848825Y-212243954D01*
X224848825Y-213643954D01*
X221048825Y-213643954D01*
X221048825Y-212243954D01*
G37*
G36*
X228668825Y-197003954D02*
G01*
X232468825Y-197003954D01*
X232468825Y-198403954D01*
X228668825Y-198403954D01*
X228668825Y-197003954D01*
G37*
G36*
X228668825Y-199543954D02*
G01*
X232468825Y-199543954D01*
X232468825Y-200943954D01*
X228668825Y-200943954D01*
X228668825Y-199543954D01*
G37*
G36*
X228668825Y-202083954D02*
G01*
X232468825Y-202083954D01*
X232468825Y-203483954D01*
X228668825Y-203483954D01*
X228668825Y-202083954D01*
G37*
G36*
X228668825Y-204623954D02*
G01*
X232468825Y-204623954D01*
X232468825Y-206023954D01*
X228668825Y-206023954D01*
X228668825Y-204623954D01*
G37*
G36*
X228668825Y-207163954D02*
G01*
X232468825Y-207163954D01*
X232468825Y-208563954D01*
X228668825Y-208563954D01*
X228668825Y-207163954D01*
G37*
G36*
X228668825Y-209703954D02*
G01*
X232468825Y-209703954D01*
X232468825Y-211103954D01*
X228668825Y-211103954D01*
X228668825Y-209703954D01*
G37*
G36*
X228668825Y-212243954D02*
G01*
X232468825Y-212243954D01*
X232468825Y-213643954D01*
X228668825Y-213643954D01*
X228668825Y-212243954D01*
G37*
G04 #@! TO.C,U14*
G36*
X194218825Y-115443954D02*
G01*
X191818825Y-115443954D01*
X191818825Y-100203954D01*
X194218825Y-100203954D01*
X194218825Y-115443954D01*
G37*
G36*
X186598825Y-115443954D02*
G01*
X184198825Y-115443954D01*
X184198825Y-100203954D01*
X186598825Y-100203954D01*
X186598825Y-115443954D01*
G37*
X193618825Y-115443954D02*
G75*
G03*
X193618825Y-115443954I-600000J0D01*
G01*
X193618825Y-100203954D02*
G75*
G03*
X193618825Y-100203954I-600000J0D01*
G01*
X185998825Y-115443954D02*
G75*
G03*
X185998825Y-115443954I-600000J0D01*
G01*
X185998825Y-100203954D02*
G75*
G03*
X185998825Y-100203954I-600000J0D01*
G01*
G04 #@! TO.C,U3*
G36*
X99598825Y-145303954D02*
G01*
X101198825Y-145303954D01*
X101198825Y-141503954D01*
X99598825Y-141503954D01*
X99598825Y-145303954D01*
G37*
G36*
X102138825Y-145303954D02*
G01*
X103738825Y-145303954D01*
X103738825Y-141503954D01*
X102138825Y-141503954D01*
X102138825Y-145303954D01*
G37*
G36*
X104678825Y-145303954D02*
G01*
X106278825Y-145303954D01*
X106278825Y-141503954D01*
X104678825Y-141503954D01*
X104678825Y-145303954D01*
G37*
G36*
X107218825Y-145303954D02*
G01*
X108818825Y-145303954D01*
X108818825Y-141503954D01*
X107218825Y-141503954D01*
X107218825Y-145303954D01*
G37*
G36*
X109758825Y-145303954D02*
G01*
X111358825Y-145303954D01*
X111358825Y-141503954D01*
X109758825Y-141503954D01*
X109758825Y-145303954D01*
G37*
G36*
X112298825Y-145303954D02*
G01*
X113898825Y-145303954D01*
X113898825Y-141503954D01*
X112298825Y-141503954D01*
X112298825Y-145303954D01*
G37*
G36*
X114838825Y-145303954D02*
G01*
X116438825Y-145303954D01*
X116438825Y-141503954D01*
X114838825Y-141503954D01*
X114838825Y-145303954D01*
G37*
G36*
X117378825Y-145303954D02*
G01*
X118978825Y-145303954D01*
X118978825Y-141503954D01*
X117378825Y-141503954D01*
X117378825Y-145303954D01*
G37*
G36*
X119918825Y-145303954D02*
G01*
X121518825Y-145303954D01*
X121518825Y-141503954D01*
X119918825Y-141503954D01*
X119918825Y-145303954D01*
G37*
G36*
X82618825Y-144603954D02*
G01*
X97858825Y-144603954D01*
X97858825Y-142203954D01*
X82618825Y-142203954D01*
X82618825Y-144603954D01*
G37*
G36*
X123258825Y-144603954D02*
G01*
X130878825Y-144603954D01*
X130878825Y-142203954D01*
X123258825Y-142203954D01*
X123258825Y-144603954D01*
G37*
G36*
X86898825Y-130063954D02*
G01*
X88498825Y-130063954D01*
X88498825Y-126263954D01*
X86898825Y-126263954D01*
X86898825Y-130063954D01*
G37*
G36*
X89438825Y-130063954D02*
G01*
X91038825Y-130063954D01*
X91038825Y-126263954D01*
X89438825Y-126263954D01*
X89438825Y-130063954D01*
G37*
G36*
X91978825Y-130063954D02*
G01*
X93578825Y-130063954D01*
X93578825Y-126263954D01*
X91978825Y-126263954D01*
X91978825Y-130063954D01*
G37*
G36*
X94518825Y-130063954D02*
G01*
X96118825Y-130063954D01*
X96118825Y-126263954D01*
X94518825Y-126263954D01*
X94518825Y-130063954D01*
G37*
G36*
X97058825Y-130063954D02*
G01*
X98658825Y-130063954D01*
X98658825Y-126263954D01*
X97058825Y-126263954D01*
X97058825Y-130063954D01*
G37*
G36*
X99598825Y-130063954D02*
G01*
X101198825Y-130063954D01*
X101198825Y-126263954D01*
X99598825Y-126263954D01*
X99598825Y-130063954D01*
G37*
G36*
X102138825Y-130063954D02*
G01*
X103738825Y-130063954D01*
X103738825Y-126263954D01*
X102138825Y-126263954D01*
X102138825Y-130063954D01*
G37*
G36*
X104678825Y-130063954D02*
G01*
X106278825Y-130063954D01*
X106278825Y-126263954D01*
X104678825Y-126263954D01*
X104678825Y-130063954D01*
G37*
G36*
X107218825Y-130063954D02*
G01*
X108818825Y-130063954D01*
X108818825Y-126263954D01*
X107218825Y-126263954D01*
X107218825Y-130063954D01*
G37*
G36*
X109758825Y-130063954D02*
G01*
X111358825Y-130063954D01*
X111358825Y-126263954D01*
X109758825Y-126263954D01*
X109758825Y-130063954D01*
G37*
G36*
X112298825Y-130063954D02*
G01*
X113898825Y-130063954D01*
X113898825Y-126263954D01*
X112298825Y-126263954D01*
X112298825Y-130063954D01*
G37*
G36*
X114838825Y-130063954D02*
G01*
X116438825Y-130063954D01*
X116438825Y-126263954D01*
X114838825Y-126263954D01*
X114838825Y-130063954D01*
G37*
G36*
X117378825Y-130063954D02*
G01*
X118978825Y-130063954D01*
X118978825Y-126263954D01*
X117378825Y-126263954D01*
X117378825Y-130063954D01*
G37*
G36*
X82618825Y-129363954D02*
G01*
X85158825Y-129363954D01*
X85158825Y-126963954D01*
X82618825Y-126963954D01*
X82618825Y-129363954D01*
G37*
G36*
X120718825Y-129363954D02*
G01*
X130878825Y-129363954D01*
X130878825Y-126963954D01*
X120718825Y-126963954D01*
X120718825Y-129363954D01*
G37*
X83218825Y-143403954D02*
G75*
G03*
X83218825Y-143403954I-600000J0D01*
G01*
X98458825Y-143403954D02*
G75*
G03*
X98458825Y-143403954I-600000J0D01*
G01*
X123858825Y-143403954D02*
G75*
G03*
X123858825Y-143403954I-600000J0D01*
G01*
X131478825Y-143403954D02*
G75*
G03*
X131478825Y-143403954I-600000J0D01*
G01*
X83218825Y-128163954D02*
G75*
G03*
X83218825Y-128163954I-600000J0D01*
G01*
X85758825Y-128163954D02*
G75*
G03*
X85758825Y-128163954I-600000J0D01*
G01*
X121318825Y-128163954D02*
G75*
G03*
X121318825Y-128163954I-600000J0D01*
G01*
X131478825Y-128163954D02*
G75*
G03*
X131478825Y-128163954I-600000J0D01*
G01*
G04 #@! TO.C,R52*
X136708825Y-276333954D02*
G75*
G03*
X136708825Y-276333954I-600000J0D01*
G01*
X124008825Y-276333954D02*
G75*
G03*
X124008825Y-276333954I-600000J0D01*
G01*
G04 #@! TO.C,CR6*
D11*
X149458825Y-268103954D02*
G75*
G03*
X149458825Y-268103954I-800000J0D01*
G01*
X162158825Y-268103954D02*
G75*
G03*
X162158825Y-268103954I-800000J0D01*
G01*
G04 #@! TO.C,U4*
G36*
X86608825Y-237223954D02*
G01*
X89008825Y-237223954D01*
X89008825Y-255003954D01*
X86608825Y-255003954D01*
X86608825Y-237223954D01*
G37*
G36*
X94228825Y-237223954D02*
G01*
X96628825Y-237223954D01*
X96628825Y-255003954D01*
X94228825Y-255003954D01*
X94228825Y-237223954D01*
G37*
D12*
X88408825Y-237223954D02*
G75*
G03*
X88408825Y-237223954I-600000J0D01*
G01*
X88408825Y-255003954D02*
G75*
G03*
X88408825Y-255003954I-600000J0D01*
G01*
X96028825Y-237223954D02*
G75*
G03*
X96028825Y-237223954I-600000J0D01*
G01*
X96028825Y-255003954D02*
G75*
G03*
X96028825Y-255003954I-600000J0D01*
G01*
G04 #@! TO.C,U16*
G36*
X110798825Y-228283954D02*
G01*
X113198825Y-228283954D01*
X113198825Y-243523954D01*
X110798825Y-243523954D01*
X110798825Y-228283954D01*
G37*
G36*
X118418825Y-228283954D02*
G01*
X120818825Y-228283954D01*
X120818825Y-243523954D01*
X118418825Y-243523954D01*
X118418825Y-228283954D01*
G37*
X112598825Y-228283954D02*
G75*
G03*
X112598825Y-228283954I-600000J0D01*
G01*
X112598825Y-243523954D02*
G75*
G03*
X112598825Y-243523954I-600000J0D01*
G01*
X120218825Y-228283954D02*
G75*
G03*
X120218825Y-228283954I-600000J0D01*
G01*
X120218825Y-243523954D02*
G75*
G03*
X120218825Y-243523954I-600000J0D01*
G01*
G04 #@! TO.C,R47*
X158238825Y-242253954D02*
G75*
G03*
X158238825Y-242253954I-600000J0D01*
G01*
X145538825Y-242253954D02*
G75*
G03*
X145538825Y-242253954I-600000J0D01*
G01*
G04 #@! TO.C,C12*
D11*
X83588825Y-313043954D02*
G75*
G03*
X83588825Y-313043954I-800000J0D01*
G01*
X114068825Y-313043954D02*
G75*
G03*
X114068825Y-313043954I-800000J0D01*
G01*
G04 #@! TO.C,R39*
D12*
X83258825Y-210733954D02*
G75*
G03*
X83258825Y-210733954I-600000J0D01*
G01*
X83258825Y-202033954D02*
G75*
G03*
X83258825Y-202033954I-600000J0D01*
G01*
G04 #@! TO.C,U2*
G36*
X86998825Y-178273954D02*
G01*
X88598825Y-178273954D01*
X88598825Y-174473954D01*
X86998825Y-174473954D01*
X86998825Y-178273954D01*
G37*
G36*
X89538825Y-178273954D02*
G01*
X91138825Y-178273954D01*
X91138825Y-174473954D01*
X89538825Y-174473954D01*
X89538825Y-178273954D01*
G37*
G36*
X94618825Y-178273954D02*
G01*
X96218825Y-178273954D01*
X96218825Y-174473954D01*
X94618825Y-174473954D01*
X94618825Y-178273954D01*
G37*
G36*
X97158825Y-178273954D02*
G01*
X98758825Y-178273954D01*
X98758825Y-174473954D01*
X97158825Y-174473954D01*
X97158825Y-178273954D01*
G37*
G36*
X99698825Y-178273954D02*
G01*
X101298825Y-178273954D01*
X101298825Y-174473954D01*
X99698825Y-174473954D01*
X99698825Y-178273954D01*
G37*
G36*
X120018825Y-178273954D02*
G01*
X121618825Y-178273954D01*
X121618825Y-174473954D01*
X120018825Y-174473954D01*
X120018825Y-178273954D01*
G37*
G36*
X122558825Y-178273954D02*
G01*
X124158825Y-178273954D01*
X124158825Y-174473954D01*
X122558825Y-174473954D01*
X122558825Y-178273954D01*
G37*
G36*
X125098825Y-178273954D02*
G01*
X126698825Y-178273954D01*
X126698825Y-174473954D01*
X125098825Y-174473954D01*
X125098825Y-178273954D01*
G37*
G36*
X127638825Y-178273954D02*
G01*
X129238825Y-178273954D01*
X129238825Y-174473954D01*
X127638825Y-174473954D01*
X127638825Y-178273954D01*
G37*
G36*
X130178825Y-178273954D02*
G01*
X131778825Y-178273954D01*
X131778825Y-174473954D01*
X130178825Y-174473954D01*
X130178825Y-178273954D01*
G37*
G36*
X82718825Y-177573954D02*
G01*
X85258825Y-177573954D01*
X85258825Y-175173954D01*
X82718825Y-175173954D01*
X82718825Y-177573954D01*
G37*
G36*
X103038825Y-177573954D02*
G01*
X118278825Y-177573954D01*
X118278825Y-175173954D01*
X103038825Y-175173954D01*
X103038825Y-177573954D01*
G37*
G36*
X84458825Y-163033954D02*
G01*
X86058825Y-163033954D01*
X86058825Y-159233954D01*
X84458825Y-159233954D01*
X84458825Y-163033954D01*
G37*
G36*
X86998825Y-163033954D02*
G01*
X88598825Y-163033954D01*
X88598825Y-159233954D01*
X86998825Y-159233954D01*
X86998825Y-163033954D01*
G37*
G36*
X89538825Y-163033954D02*
G01*
X91138825Y-163033954D01*
X91138825Y-159233954D01*
X89538825Y-159233954D01*
X89538825Y-163033954D01*
G37*
G36*
X92078825Y-163033954D02*
G01*
X93678825Y-163033954D01*
X93678825Y-159233954D01*
X92078825Y-159233954D01*
X92078825Y-163033954D01*
G37*
G36*
X94618825Y-163033954D02*
G01*
X96218825Y-163033954D01*
X96218825Y-159233954D01*
X94618825Y-159233954D01*
X94618825Y-163033954D01*
G37*
G36*
X97158825Y-163033954D02*
G01*
X98758825Y-163033954D01*
X98758825Y-159233954D01*
X97158825Y-159233954D01*
X97158825Y-163033954D01*
G37*
G36*
X99698825Y-163033954D02*
G01*
X101298825Y-163033954D01*
X101298825Y-159233954D01*
X99698825Y-159233954D01*
X99698825Y-163033954D01*
G37*
G36*
X102238825Y-163033954D02*
G01*
X103838825Y-163033954D01*
X103838825Y-159233954D01*
X102238825Y-159233954D01*
X102238825Y-163033954D01*
G37*
G36*
X104778825Y-163033954D02*
G01*
X106378825Y-163033954D01*
X106378825Y-159233954D01*
X104778825Y-159233954D01*
X104778825Y-163033954D01*
G37*
G36*
X107318825Y-163033954D02*
G01*
X108918825Y-163033954D01*
X108918825Y-159233954D01*
X107318825Y-159233954D01*
X107318825Y-163033954D01*
G37*
G36*
X109858825Y-163033954D02*
G01*
X111458825Y-163033954D01*
X111458825Y-159233954D01*
X109858825Y-159233954D01*
X109858825Y-163033954D01*
G37*
G36*
X112398825Y-163033954D02*
G01*
X113998825Y-163033954D01*
X113998825Y-159233954D01*
X112398825Y-159233954D01*
X112398825Y-163033954D01*
G37*
G36*
X114938825Y-163033954D02*
G01*
X116538825Y-163033954D01*
X116538825Y-159233954D01*
X114938825Y-159233954D01*
X114938825Y-163033954D01*
G37*
G36*
X117478825Y-163033954D02*
G01*
X119078825Y-163033954D01*
X119078825Y-159233954D01*
X117478825Y-159233954D01*
X117478825Y-163033954D01*
G37*
G36*
X120018825Y-163033954D02*
G01*
X121618825Y-163033954D01*
X121618825Y-159233954D01*
X120018825Y-159233954D01*
X120018825Y-163033954D01*
G37*
G36*
X122558825Y-163033954D02*
G01*
X124158825Y-163033954D01*
X124158825Y-159233954D01*
X122558825Y-159233954D01*
X122558825Y-163033954D01*
G37*
G36*
X125098825Y-163033954D02*
G01*
X126698825Y-163033954D01*
X126698825Y-159233954D01*
X125098825Y-159233954D01*
X125098825Y-163033954D01*
G37*
G36*
X128438825Y-162333954D02*
G01*
X130978825Y-162333954D01*
X130978825Y-159933954D01*
X128438825Y-159933954D01*
X128438825Y-162333954D01*
G37*
X83318825Y-176373954D02*
G75*
G03*
X83318825Y-176373954I-600000J0D01*
G01*
X85858825Y-176373954D02*
G75*
G03*
X85858825Y-176373954I-600000J0D01*
G01*
X93478825Y-176373954D02*
G75*
G03*
X93478825Y-176373954I-600000J0D01*
G01*
X103638825Y-176373954D02*
G75*
G03*
X103638825Y-176373954I-600000J0D01*
G01*
X118878825Y-176373954D02*
G75*
G03*
X118878825Y-176373954I-600000J0D01*
G01*
X83318825Y-161133954D02*
G75*
G03*
X83318825Y-161133954I-600000J0D01*
G01*
X129038825Y-161133954D02*
G75*
G03*
X129038825Y-161133954I-600000J0D01*
G01*
X131578825Y-161133954D02*
G75*
G03*
X131578825Y-161133954I-600000J0D01*
G01*
G04 #@! TO.C,C4*
D11*
X131738825Y-265193954D02*
G75*
G03*
X131738825Y-265193954I-800000J0D01*
G01*
X131738825Y-242393954D02*
G75*
G03*
X131738825Y-242393954I-800000J0D01*
G01*
G04 #@! TO.C,CR7*
X59378825Y-172843954D02*
G75*
G03*
X59378825Y-172843954I-800000J0D01*
G01*
X59378825Y-185143954D02*
G75*
G03*
X59378825Y-185143954I-800000J0D01*
G01*
G04 #@! TO.C,C9*
X107688825Y-306863954D02*
G75*
G03*
X107688825Y-306863954I-800000J0D01*
G01*
X130548825Y-306863954D02*
G75*
G03*
X130548825Y-306863954I-800000J0D01*
G01*
G04 #@! TO.C,Q2*
X199734825Y-191338954D02*
G75*
G03*
X199734825Y-191338954I-800000J0D01*
G01*
X197829825Y-189433954D02*
G75*
G03*
X197829825Y-189433954I-800000J0D01*
G01*
X199734825Y-187528954D02*
G75*
G03*
X199734825Y-187528954I-800000J0D01*
G01*
G04 #@! TO.C,R38*
D12*
X83348825Y-228443954D02*
G75*
G03*
X83348825Y-228443954I-600000J0D01*
G01*
X96048825Y-228443954D02*
G75*
G03*
X96048825Y-228443954I-600000J0D01*
G01*
G04 #@! TO.C,R42*
X195068825Y-172333954D02*
G75*
G03*
X195068825Y-172333954I-600000J0D01*
G01*
X195068825Y-185033954D02*
G75*
G03*
X195068825Y-185033954I-600000J0D01*
G01*
G04 #@! TO.C,C17*
D11*
X170528825Y-273933954D02*
G75*
G03*
X170528825Y-273933954I-800000J0D01*
G01*
X170528825Y-238373954D02*
G75*
G03*
X170528825Y-238373954I-800000J0D01*
G01*
G04 #@! TO.C,R37*
D12*
X83348825Y-231093954D02*
G75*
G03*
X83348825Y-231093954I-600000J0D01*
G01*
X96048825Y-231093954D02*
G75*
G03*
X96048825Y-231093954I-600000J0D01*
G01*
G04 #@! TO.C,R9*
X130348825Y-310483954D02*
G75*
G03*
X130348825Y-310483954I-600000J0D01*
G01*
X117648825Y-310483954D02*
G75*
G03*
X117648825Y-310483954I-600000J0D01*
G01*
G04 #@! TO.C,U28*
G36*
X123408825Y-281433954D02*
G01*
X125808825Y-281433954D01*
X125808825Y-289053954D01*
X123408825Y-289053954D01*
X123408825Y-281433954D01*
G37*
G36*
X131028825Y-281433954D02*
G01*
X133428825Y-281433954D01*
X133428825Y-289053954D01*
X131028825Y-289053954D01*
X131028825Y-281433954D01*
G37*
X125208825Y-281433954D02*
G75*
G03*
X125208825Y-281433954I-600000J0D01*
G01*
X125208825Y-289053954D02*
G75*
G03*
X125208825Y-289053954I-600000J0D01*
G01*
X132828825Y-281433954D02*
G75*
G03*
X132828825Y-281433954I-600000J0D01*
G01*
X132828825Y-289053954D02*
G75*
G03*
X132828825Y-289053954I-600000J0D01*
G01*
G04 #@! TO.C,U1*
G36*
X131678825Y-89633954D02*
G01*
X130078825Y-89633954D01*
X130078825Y-93433954D01*
X131678825Y-93433954D01*
X131678825Y-89633954D01*
G37*
G36*
X129138825Y-89633954D02*
G01*
X127538825Y-89633954D01*
X127538825Y-93433954D01*
X129138825Y-93433954D01*
X129138825Y-89633954D01*
G37*
G36*
X126598825Y-89633954D02*
G01*
X124998825Y-89633954D01*
X124998825Y-93433954D01*
X126598825Y-93433954D01*
X126598825Y-89633954D01*
G37*
G36*
X124058825Y-89633954D02*
G01*
X122458825Y-89633954D01*
X122458825Y-93433954D01*
X124058825Y-93433954D01*
X124058825Y-89633954D01*
G37*
G36*
X121518825Y-89633954D02*
G01*
X119918825Y-89633954D01*
X119918825Y-93433954D01*
X121518825Y-93433954D01*
X121518825Y-89633954D01*
G37*
G36*
X118978825Y-89633954D02*
G01*
X117378825Y-89633954D01*
X117378825Y-93433954D01*
X118978825Y-93433954D01*
X118978825Y-89633954D01*
G37*
G36*
X116438825Y-89633954D02*
G01*
X114838825Y-89633954D01*
X114838825Y-93433954D01*
X116438825Y-93433954D01*
X116438825Y-89633954D01*
G37*
G36*
X113898825Y-89633954D02*
G01*
X112298825Y-89633954D01*
X112298825Y-93433954D01*
X113898825Y-93433954D01*
X113898825Y-89633954D01*
G37*
G36*
X111358825Y-89633954D02*
G01*
X109758825Y-89633954D01*
X109758825Y-93433954D01*
X111358825Y-93433954D01*
X111358825Y-89633954D01*
G37*
G36*
X108818825Y-89633954D02*
G01*
X107218825Y-89633954D01*
X107218825Y-93433954D01*
X108818825Y-93433954D01*
X108818825Y-89633954D01*
G37*
G36*
X105478825Y-90333954D02*
G01*
X82618825Y-90333954D01*
X82618825Y-92733954D01*
X105478825Y-92733954D01*
X105478825Y-90333954D01*
G37*
G36*
X118978825Y-104873954D02*
G01*
X117378825Y-104873954D01*
X117378825Y-108673954D01*
X118978825Y-108673954D01*
X118978825Y-104873954D01*
G37*
G36*
X116438825Y-104873954D02*
G01*
X114838825Y-104873954D01*
X114838825Y-108673954D01*
X116438825Y-108673954D01*
X116438825Y-104873954D01*
G37*
G36*
X113898825Y-104873954D02*
G01*
X112298825Y-104873954D01*
X112298825Y-108673954D01*
X113898825Y-108673954D01*
X113898825Y-104873954D01*
G37*
G36*
X111358825Y-104873954D02*
G01*
X109758825Y-104873954D01*
X109758825Y-108673954D01*
X111358825Y-108673954D01*
X111358825Y-104873954D01*
G37*
G36*
X108818825Y-104873954D02*
G01*
X107218825Y-104873954D01*
X107218825Y-108673954D01*
X108818825Y-108673954D01*
X108818825Y-104873954D01*
G37*
G36*
X106278825Y-104873954D02*
G01*
X104678825Y-104873954D01*
X104678825Y-108673954D01*
X106278825Y-108673954D01*
X106278825Y-104873954D01*
G37*
G36*
X103738825Y-104873954D02*
G01*
X102138825Y-104873954D01*
X102138825Y-108673954D01*
X103738825Y-108673954D01*
X103738825Y-104873954D01*
G37*
G36*
X101198825Y-104873954D02*
G01*
X99598825Y-104873954D01*
X99598825Y-108673954D01*
X101198825Y-108673954D01*
X101198825Y-104873954D01*
G37*
G36*
X98658825Y-104873954D02*
G01*
X97058825Y-104873954D01*
X97058825Y-108673954D01*
X98658825Y-108673954D01*
X98658825Y-104873954D01*
G37*
G36*
X96118825Y-104873954D02*
G01*
X94518825Y-104873954D01*
X94518825Y-108673954D01*
X96118825Y-108673954D01*
X96118825Y-104873954D01*
G37*
G36*
X93578825Y-104873954D02*
G01*
X91978825Y-104873954D01*
X91978825Y-108673954D01*
X93578825Y-108673954D01*
X93578825Y-104873954D01*
G37*
G36*
X91038825Y-104873954D02*
G01*
X89438825Y-104873954D01*
X89438825Y-108673954D01*
X91038825Y-108673954D01*
X91038825Y-104873954D01*
G37*
G36*
X88498825Y-104873954D02*
G01*
X86898825Y-104873954D01*
X86898825Y-108673954D01*
X88498825Y-108673954D01*
X88498825Y-104873954D01*
G37*
G36*
X85958825Y-104873954D02*
G01*
X84358825Y-104873954D01*
X84358825Y-108673954D01*
X85958825Y-108673954D01*
X85958825Y-104873954D01*
G37*
G36*
X83418825Y-104873954D02*
G01*
X81818825Y-104873954D01*
X81818825Y-108673954D01*
X83418825Y-108673954D01*
X83418825Y-104873954D01*
G37*
G36*
X130878825Y-105573954D02*
G01*
X120718825Y-105573954D01*
X120718825Y-107973954D01*
X130878825Y-107973954D01*
X130878825Y-105573954D01*
G37*
X106078825Y-91533954D02*
G75*
G03*
X106078825Y-91533954I-600000J0D01*
G01*
X83218825Y-91533954D02*
G75*
G03*
X83218825Y-91533954I-600000J0D01*
G01*
X131478825Y-106773954D02*
G75*
G03*
X131478825Y-106773954I-600000J0D01*
G01*
X121318825Y-106773954D02*
G75*
G03*
X121318825Y-106773954I-600000J0D01*
G01*
G04 #@! TO.C,R14*
X98630000Y-266440000D02*
G75*
G03*
X98630000Y-266440000I-600000J0D01*
G01*
X85930000Y-266440000D02*
G75*
G03*
X85930000Y-266440000I-600000J0D01*
G01*
G04 #@! TO.C,U20*
G36*
X196308825Y-197003954D02*
G01*
X200108825Y-197003954D01*
X200108825Y-198403954D01*
X196308825Y-198403954D01*
X196308825Y-197003954D01*
G37*
G36*
X196308825Y-199543954D02*
G01*
X200108825Y-199543954D01*
X200108825Y-200943954D01*
X196308825Y-200943954D01*
X196308825Y-199543954D01*
G37*
G36*
X196308825Y-202083954D02*
G01*
X200108825Y-202083954D01*
X200108825Y-203483954D01*
X196308825Y-203483954D01*
X196308825Y-202083954D01*
G37*
G36*
X196308825Y-204623954D02*
G01*
X200108825Y-204623954D01*
X200108825Y-206023954D01*
X196308825Y-206023954D01*
X196308825Y-204623954D01*
G37*
G36*
X196308825Y-207163954D02*
G01*
X200108825Y-207163954D01*
X200108825Y-208563954D01*
X196308825Y-208563954D01*
X196308825Y-207163954D01*
G37*
G36*
X196308825Y-209703954D02*
G01*
X200108825Y-209703954D01*
X200108825Y-211103954D01*
X196308825Y-211103954D01*
X196308825Y-209703954D01*
G37*
G36*
X196308825Y-212243954D02*
G01*
X200108825Y-212243954D01*
X200108825Y-213643954D01*
X196308825Y-213643954D01*
X196308825Y-212243954D01*
G37*
G36*
X203928825Y-197003954D02*
G01*
X207728825Y-197003954D01*
X207728825Y-198403954D01*
X203928825Y-198403954D01*
X203928825Y-197003954D01*
G37*
G36*
X203928825Y-199543954D02*
G01*
X207728825Y-199543954D01*
X207728825Y-200943954D01*
X203928825Y-200943954D01*
X203928825Y-199543954D01*
G37*
G36*
X203928825Y-202083954D02*
G01*
X207728825Y-202083954D01*
X207728825Y-203483954D01*
X203928825Y-203483954D01*
X203928825Y-202083954D01*
G37*
G36*
X203928825Y-204623954D02*
G01*
X207728825Y-204623954D01*
X207728825Y-206023954D01*
X203928825Y-206023954D01*
X203928825Y-204623954D01*
G37*
G36*
X203928825Y-207163954D02*
G01*
X207728825Y-207163954D01*
X207728825Y-208563954D01*
X203928825Y-208563954D01*
X203928825Y-207163954D01*
G37*
G36*
X203928825Y-209703954D02*
G01*
X207728825Y-209703954D01*
X207728825Y-211103954D01*
X203928825Y-211103954D01*
X203928825Y-209703954D01*
G37*
G36*
X203928825Y-212243954D02*
G01*
X207728825Y-212243954D01*
X207728825Y-213643954D01*
X203928825Y-213643954D01*
X203928825Y-212243954D01*
G37*
G04 #@! TO.C,R7*
X176058825Y-264983954D02*
G75*
G03*
X176058825Y-264983954I-600000J0D01*
G01*
X176058825Y-252283954D02*
G75*
G03*
X176058825Y-252283954I-600000J0D01*
G01*
G04 #@! TO.C,C7*
D11*
X143918825Y-270153954D02*
G75*
G03*
X143918825Y-270153954I-800000J0D01*
G01*
X108358825Y-270153954D02*
G75*
G03*
X108358825Y-270153954I-800000J0D01*
G01*
G04 #@! TO.C,C1*
X59388825Y-213083954D02*
G75*
G03*
X59388825Y-213083954I-800000J0D01*
G01*
X59388825Y-190283954D02*
G75*
G03*
X59388825Y-190283954I-800000J0D01*
G01*
G04 #@! TO.C,CR2*
D16*
X85988825Y-271543954D02*
G75*
G03*
X85988825Y-271543954I-650000J0D01*
G01*
X98688825Y-271543954D02*
G75*
G03*
X98688825Y-271543954I-650000J0D01*
G01*
G04 #@! TO.C,C15*
D11*
X201488825Y-106533954D02*
G75*
G03*
X201488825Y-106533954I-800000J0D01*
G01*
X201488825Y-142093954D02*
G75*
G03*
X201488825Y-142093954I-800000J0D01*
G01*
G04 #@! TO.C,Q4*
X212439825Y-191338954D02*
G75*
G03*
X212439825Y-191338954I-800000J0D01*
G01*
X210534825Y-189433954D02*
G75*
G03*
X210534825Y-189433954I-800000J0D01*
G01*
X212439825Y-187528954D02*
G75*
G03*
X212439825Y-187528954I-800000J0D01*
G01*
G04 #@! TO.C,R24*
D12*
X163378825Y-290413954D02*
G75*
G03*
X163378825Y-290413954I-600000J0D01*
G01*
X163378825Y-303113954D02*
G75*
G03*
X163378825Y-303113954I-600000J0D01*
G01*
G04 #@! TO.C,Q3*
D11*
X206007825Y-191338954D02*
G75*
G03*
X206007825Y-191338954I-800000J0D01*
G01*
X204102825Y-189433954D02*
G75*
G03*
X204102825Y-189433954I-800000J0D01*
G01*
X206007825Y-187528954D02*
G75*
G03*
X206007825Y-187528954I-800000J0D01*
G01*
G04 #@! TO.C,R19*
D12*
X197628825Y-185043954D02*
G75*
G03*
X197628825Y-185043954I-600000J0D01*
G01*
X197628825Y-172343954D02*
G75*
G03*
X197628825Y-172343954I-600000J0D01*
G01*
G04 #@! TO.C,R35*
X83348825Y-233683954D02*
G75*
G03*
X83348825Y-233683954I-600000J0D01*
G01*
X96048825Y-233683954D02*
G75*
G03*
X96048825Y-233683954I-600000J0D01*
G01*
G04 #@! TO.C,U13*
G36*
X194218825Y-140663954D02*
G01*
X191818825Y-140663954D01*
X191818825Y-125423954D01*
X194218825Y-125423954D01*
X194218825Y-140663954D01*
G37*
G36*
X186598825Y-140663954D02*
G01*
X184198825Y-140663954D01*
X184198825Y-125423954D01*
X186598825Y-125423954D01*
X186598825Y-140663954D01*
G37*
X193618825Y-140663954D02*
G75*
G03*
X193618825Y-140663954I-600000J0D01*
G01*
X193618825Y-125423954D02*
G75*
G03*
X193618825Y-125423954I-600000J0D01*
G01*
X185998825Y-140663954D02*
G75*
G03*
X185998825Y-140663954I-600000J0D01*
G01*
X185998825Y-125423954D02*
G75*
G03*
X185998825Y-125423954I-600000J0D01*
G01*
G04 #@! TO.C,U18*
G36*
X175438825Y-197703954D02*
G01*
X177838825Y-197703954D01*
X177838825Y-212943954D01*
X175438825Y-212943954D01*
X175438825Y-197703954D01*
G37*
G36*
X182358825Y-197003954D02*
G01*
X186158825Y-197003954D01*
X186158825Y-198403954D01*
X182358825Y-198403954D01*
X182358825Y-197003954D01*
G37*
G36*
X182358825Y-199543954D02*
G01*
X186158825Y-199543954D01*
X186158825Y-200943954D01*
X182358825Y-200943954D01*
X182358825Y-199543954D01*
G37*
G36*
X182358825Y-202083954D02*
G01*
X186158825Y-202083954D01*
X186158825Y-203483954D01*
X182358825Y-203483954D01*
X182358825Y-202083954D01*
G37*
G36*
X182358825Y-204623954D02*
G01*
X186158825Y-204623954D01*
X186158825Y-206023954D01*
X182358825Y-206023954D01*
X182358825Y-204623954D01*
G37*
G36*
X182358825Y-207163954D02*
G01*
X186158825Y-207163954D01*
X186158825Y-208563954D01*
X182358825Y-208563954D01*
X182358825Y-207163954D01*
G37*
G36*
X182358825Y-209703954D02*
G01*
X186158825Y-209703954D01*
X186158825Y-211103954D01*
X182358825Y-211103954D01*
X182358825Y-209703954D01*
G37*
G36*
X182358825Y-212243954D02*
G01*
X186158825Y-212243954D01*
X186158825Y-213643954D01*
X182358825Y-213643954D01*
X182358825Y-212243954D01*
G37*
X177238825Y-197703954D02*
G75*
G03*
X177238825Y-197703954I-600000J0D01*
G01*
X177238825Y-212943954D02*
G75*
G03*
X177238825Y-212943954I-600000J0D01*
G01*
G04 #@! TO.C,R20*
X203898825Y-185043954D02*
G75*
G03*
X203898825Y-185043954I-600000J0D01*
G01*
X203898825Y-172343954D02*
G75*
G03*
X203898825Y-172343954I-600000J0D01*
G01*
G04 #@! TO.C,R17*
X144288825Y-261328954D02*
G75*
G03*
X144288825Y-261328954I-600000J0D01*
G01*
X144288825Y-248628954D02*
G75*
G03*
X144288825Y-248628954I-600000J0D01*
G01*
G04 #@! TO.C,U27*
G36*
X86708825Y-275163954D02*
G01*
X89108825Y-275163954D01*
X89108825Y-290403954D01*
X86708825Y-290403954D01*
X86708825Y-275163954D01*
G37*
G36*
X94328825Y-275163954D02*
G01*
X96728825Y-275163954D01*
X96728825Y-290403954D01*
X94328825Y-290403954D01*
X94328825Y-275163954D01*
G37*
X88508825Y-275163954D02*
G75*
G03*
X88508825Y-275163954I-600000J0D01*
G01*
X88508825Y-290403954D02*
G75*
G03*
X88508825Y-290403954I-600000J0D01*
G01*
X96128825Y-275163954D02*
G75*
G03*
X96128825Y-275163954I-600000J0D01*
G01*
X96128825Y-290403954D02*
G75*
G03*
X96128825Y-290403954I-600000J0D01*
G01*
D13*
G04 #@! TO.C,P2*
X43048825Y-227473954D02*
X53118825Y-227473954D01*
X53118825Y-227473954D02*
X53118825Y-318713954D01*
X53118825Y-318713954D02*
X43048825Y-318713954D01*
X43048825Y-318713954D02*
X43048825Y-227473954D01*
G36*
X43048825Y-227473954D02*
G01*
X53118825Y-227473954D01*
X53118825Y-318713954D01*
X43048825Y-318713954D01*
X43048825Y-227473954D01*
G37*
G04 #@! TO.C,R34*
D12*
X80798825Y-296803954D02*
G75*
G03*
X80798825Y-296803954I-600000J0D01*
G01*
X80798825Y-284103954D02*
G75*
G03*
X80798825Y-284103954I-600000J0D01*
G01*
G04 #@! TO.C,R45*
X214018825Y-172343954D02*
G75*
G03*
X214018825Y-172343954I-600000J0D01*
G01*
X214018825Y-185043954D02*
G75*
G03*
X214018825Y-185043954I-600000J0D01*
G01*
G04 #@! TO.C,R12*
X165868825Y-290413954D02*
G75*
G03*
X165868825Y-290413954I-600000J0D01*
G01*
X165868825Y-303113954D02*
G75*
G03*
X165868825Y-303113954I-600000J0D01*
G01*
G04 #@! TO.C,R13*
X158338825Y-290413954D02*
G75*
G03*
X158338825Y-290413954I-600000J0D01*
G01*
X158338825Y-303113954D02*
G75*
G03*
X158338825Y-303113954I-600000J0D01*
G01*
G04 #@! TO.C,R25*
X160828825Y-303113954D02*
G75*
G03*
X160828825Y-303113954I-600000J0D01*
G01*
X160828825Y-290413954D02*
G75*
G03*
X160828825Y-290413954I-600000J0D01*
G01*
G04 #@! TO.C,R26*
X226068825Y-162263954D02*
G75*
G03*
X226068825Y-162263954I-600000J0D01*
G01*
X226068825Y-174963954D02*
G75*
G03*
X226068825Y-174963954I-600000J0D01*
G01*
G04 #@! TO.C,U6*
G36*
X174708825Y-141363954D02*
G01*
X173308825Y-141363954D01*
X173308825Y-145163954D01*
X174708825Y-145163954D01*
X174708825Y-141363954D01*
G37*
G36*
X172168825Y-141363954D02*
G01*
X170768825Y-141363954D01*
X170768825Y-145163954D01*
X172168825Y-145163954D01*
X172168825Y-141363954D01*
G37*
G36*
X169628825Y-141363954D02*
G01*
X168228825Y-141363954D01*
X168228825Y-145163954D01*
X169628825Y-145163954D01*
X169628825Y-141363954D01*
G37*
G36*
X167088825Y-141363954D02*
G01*
X165688825Y-141363954D01*
X165688825Y-145163954D01*
X167088825Y-145163954D01*
X167088825Y-141363954D01*
G37*
G36*
X164548825Y-141363954D02*
G01*
X163148825Y-141363954D01*
X163148825Y-145163954D01*
X164548825Y-145163954D01*
X164548825Y-141363954D01*
G37*
G36*
X162008825Y-141363954D02*
G01*
X160608825Y-141363954D01*
X160608825Y-145163954D01*
X162008825Y-145163954D01*
X162008825Y-141363954D01*
G37*
G36*
X159468825Y-141363954D02*
G01*
X158068825Y-141363954D01*
X158068825Y-145163954D01*
X159468825Y-145163954D01*
X159468825Y-141363954D01*
G37*
G36*
X156928825Y-141363954D02*
G01*
X155528825Y-141363954D01*
X155528825Y-145163954D01*
X156928825Y-145163954D01*
X156928825Y-141363954D01*
G37*
G36*
X174708825Y-148983954D02*
G01*
X173308825Y-148983954D01*
X173308825Y-152783954D01*
X174708825Y-152783954D01*
X174708825Y-148983954D01*
G37*
G36*
X172168825Y-148983954D02*
G01*
X170768825Y-148983954D01*
X170768825Y-152783954D01*
X172168825Y-152783954D01*
X172168825Y-148983954D01*
G37*
G36*
X169628825Y-148983954D02*
G01*
X168228825Y-148983954D01*
X168228825Y-152783954D01*
X169628825Y-152783954D01*
X169628825Y-148983954D01*
G37*
G36*
X167088825Y-148983954D02*
G01*
X165688825Y-148983954D01*
X165688825Y-152783954D01*
X167088825Y-152783954D01*
X167088825Y-148983954D01*
G37*
G36*
X164548825Y-148983954D02*
G01*
X163148825Y-148983954D01*
X163148825Y-152783954D01*
X164548825Y-152783954D01*
X164548825Y-148983954D01*
G37*
G36*
X162008825Y-148983954D02*
G01*
X160608825Y-148983954D01*
X160608825Y-152783954D01*
X162008825Y-152783954D01*
X162008825Y-148983954D01*
G37*
G36*
X159468825Y-148983954D02*
G01*
X158068825Y-148983954D01*
X158068825Y-152783954D01*
X159468825Y-152783954D01*
X159468825Y-148983954D01*
G37*
G36*
X156928825Y-148983954D02*
G01*
X155528825Y-148983954D01*
X155528825Y-152783954D01*
X156928825Y-152783954D01*
X156928825Y-148983954D01*
G37*
G04 #@! TO.C,R43*
X201338825Y-172343954D02*
G75*
G03*
X201338825Y-172343954I-600000J0D01*
G01*
X201338825Y-185043954D02*
G75*
G03*
X201338825Y-185043954I-600000J0D01*
G01*
G04 #@! TO.C,R53*
X135118825Y-67143954D02*
G75*
G03*
X135118825Y-67143954I-600000J0D01*
G01*
X148118825Y-67143954D02*
G75*
G03*
X148118825Y-67143954I-600000J0D01*
G01*
G04 #@! TO.C,U15*
G36*
X110798825Y-248628954D02*
G01*
X113198825Y-248628954D01*
X113198825Y-263868954D01*
X110798825Y-263868954D01*
X110798825Y-248628954D01*
G37*
G36*
X118418825Y-248628954D02*
G01*
X120818825Y-248628954D01*
X120818825Y-263868954D01*
X118418825Y-263868954D01*
X118418825Y-248628954D01*
G37*
X112598825Y-248628954D02*
G75*
G03*
X112598825Y-248628954I-600000J0D01*
G01*
X112598825Y-263868954D02*
G75*
G03*
X112598825Y-263868954I-600000J0D01*
G01*
X120218825Y-248628954D02*
G75*
G03*
X120218825Y-248628954I-600000J0D01*
G01*
X120218825Y-263868954D02*
G75*
G03*
X120218825Y-263868954I-600000J0D01*
G01*
G04 #@! TO.C,CR5*
D11*
X146428825Y-245323954D02*
G75*
G03*
X146428825Y-245323954I-800000J0D01*
G01*
X159128825Y-245323954D02*
G75*
G03*
X159128825Y-245323954I-800000J0D01*
G01*
G04 #@! TO.C,R8*
D12*
X83448825Y-266440000D02*
G75*
G03*
X83448825Y-266440000I-600000J0D01*
G01*
X83448825Y-279140000D02*
G75*
G03*
X83448825Y-279140000I-600000J0D01*
G01*
G04 #@! TO.C,R15*
X85938825Y-263983954D02*
G75*
G03*
X85938825Y-263983954I-600000J0D01*
G01*
X98638825Y-263983954D02*
G75*
G03*
X98638825Y-263983954I-600000J0D01*
G01*
G04 #@! TO.C,R46*
X220308825Y-172343954D02*
G75*
G03*
X220308825Y-172343954I-600000J0D01*
G01*
X220308825Y-185043954D02*
G75*
G03*
X220308825Y-185043954I-600000J0D01*
G01*
G04 #@! TO.C,R23*
X222878825Y-185043954D02*
G75*
G03*
X222878825Y-185043954I-600000J0D01*
G01*
X222878825Y-172343954D02*
G75*
G03*
X222878825Y-172343954I-600000J0D01*
G01*
G04 #@! TO.C,R21*
X210328825Y-185043954D02*
G75*
G03*
X210328825Y-185043954I-600000J0D01*
G01*
X210328825Y-172343954D02*
G75*
G03*
X210328825Y-172343954I-600000J0D01*
G01*
G04 #@! TO.C,R22*
X216588825Y-185043954D02*
G75*
G03*
X216588825Y-185043954I-600000J0D01*
G01*
X216588825Y-172343954D02*
G75*
G03*
X216588825Y-172343954I-600000J0D01*
G01*
G04 #@! TO.C,R4*
X151928825Y-290413954D02*
G75*
G03*
X151928825Y-290413954I-600000J0D01*
G01*
X151928825Y-303113954D02*
G75*
G03*
X151928825Y-303113954I-600000J0D01*
G01*
G04 #@! TO.C,R51*
X101158825Y-294433954D02*
G75*
G03*
X101158825Y-294433954I-600000J0D01*
G01*
X88458825Y-294433954D02*
G75*
G03*
X88458825Y-294433954I-600000J0D01*
G01*
G04 #@! TO.C,C13*
D11*
X103898825Y-278363954D02*
G75*
G03*
X103898825Y-278363954I-800000J0D01*
G01*
X103898825Y-247883954D02*
G75*
G03*
X103898825Y-247883954I-800000J0D01*
G01*
G04 #@! TO.C,U19*
G36*
X185488825Y-197003954D02*
G01*
X189288825Y-197003954D01*
X189288825Y-198403954D01*
X185488825Y-198403954D01*
X185488825Y-197003954D01*
G37*
G36*
X185488825Y-199543954D02*
G01*
X189288825Y-199543954D01*
X189288825Y-200943954D01*
X185488825Y-200943954D01*
X185488825Y-199543954D01*
G37*
G36*
X185488825Y-202083954D02*
G01*
X189288825Y-202083954D01*
X189288825Y-203483954D01*
X185488825Y-203483954D01*
X185488825Y-202083954D01*
G37*
G36*
X185488825Y-204623954D02*
G01*
X189288825Y-204623954D01*
X189288825Y-206023954D01*
X185488825Y-206023954D01*
X185488825Y-204623954D01*
G37*
G36*
X185488825Y-207163954D02*
G01*
X189288825Y-207163954D01*
X189288825Y-208563954D01*
X185488825Y-208563954D01*
X185488825Y-207163954D01*
G37*
G36*
X185488825Y-209703954D02*
G01*
X189288825Y-209703954D01*
X189288825Y-211103954D01*
X185488825Y-211103954D01*
X185488825Y-209703954D01*
G37*
G36*
X185488825Y-212243954D02*
G01*
X189288825Y-212243954D01*
X189288825Y-213643954D01*
X185488825Y-213643954D01*
X185488825Y-212243954D01*
G37*
G36*
X193108825Y-197003954D02*
G01*
X196908825Y-197003954D01*
X196908825Y-198403954D01*
X193108825Y-198403954D01*
X193108825Y-197003954D01*
G37*
G36*
X193108825Y-199543954D02*
G01*
X196908825Y-199543954D01*
X196908825Y-200943954D01*
X193108825Y-200943954D01*
X193108825Y-199543954D01*
G37*
G36*
X193108825Y-202083954D02*
G01*
X196908825Y-202083954D01*
X196908825Y-203483954D01*
X193108825Y-203483954D01*
X193108825Y-202083954D01*
G37*
G36*
X193108825Y-204623954D02*
G01*
X196908825Y-204623954D01*
X196908825Y-206023954D01*
X193108825Y-206023954D01*
X193108825Y-204623954D01*
G37*
G36*
X193108825Y-207163954D02*
G01*
X196908825Y-207163954D01*
X196908825Y-208563954D01*
X193108825Y-208563954D01*
X193108825Y-207163954D01*
G37*
G36*
X193108825Y-209703954D02*
G01*
X196908825Y-209703954D01*
X196908825Y-211103954D01*
X193108825Y-211103954D01*
X193108825Y-209703954D01*
G37*
G36*
X193108825Y-212243954D02*
G01*
X196908825Y-212243954D01*
X196908825Y-213643954D01*
X193108825Y-213643954D01*
X193108825Y-212243954D01*
G37*
G04 #@! TD*
D17*
G04 #@! TO.C,C14*
X103118825Y-303113954D03*
X80258825Y-303113954D03*
G04 #@! TD*
D18*
G04 #@! TO.C,R27*
X215958825Y-159725954D03*
D19*
X228658824Y-159725953D03*
G04 #@! TD*
D17*
G04 #@! TO.C,C6*
X73858825Y-309403954D03*
X73858825Y-271303954D03*
G04 #@! TD*
D20*
G04 #@! TO.C,H13*
X198480000Y-310750000D03*
G04 #@! TD*
D21*
G04 #@! TO.C,H15*
X188170000Y-288050000D03*
G04 #@! TD*
D22*
G04 #@! TO.C,U11*
X174008824Y-79933953D03*
X171468824Y-79933953D03*
X168928824Y-79933953D03*
X166388824Y-79933953D03*
X163848824Y-79933953D03*
X161308824Y-79933953D03*
X158768824Y-79933953D03*
X156228824Y-79933953D03*
X156228824Y-87553953D03*
X158768824Y-87553953D03*
X161308824Y-87553953D03*
X163848824Y-87553953D03*
X166388824Y-87553953D03*
X168928824Y-87553953D03*
X171468824Y-87553953D03*
X174008824Y-87553953D03*
G04 #@! TD*
D18*
G04 #@! TO.C,R33*
X82848825Y-284103954D03*
D19*
X82848824Y-296803953D03*
G04 #@! TD*
D18*
G04 #@! TO.C,Q1*
X192498825Y-191338954D03*
X190593825Y-189433954D03*
X192498825Y-187528954D03*
G04 #@! TD*
D22*
G04 #@! TO.C,U8*
X174008824Y-117933953D03*
X171468824Y-117933953D03*
X168928824Y-117933953D03*
X166388824Y-117933953D03*
X163848824Y-117933953D03*
X161308824Y-117933953D03*
X158768824Y-117933953D03*
X156228824Y-117933953D03*
X156228824Y-125553953D03*
X158768824Y-125553953D03*
X161308824Y-125553953D03*
X163848824Y-125553953D03*
X166388824Y-125553953D03*
X168928824Y-125553953D03*
X171468824Y-125553953D03*
X174008824Y-125553953D03*
G04 #@! TD*
D17*
G04 #@! TO.C,C5*
X127108825Y-234783954D03*
X170288825Y-234783954D03*
G04 #@! TD*
D18*
G04 #@! TO.C,R2*
X129628825Y-80143954D03*
D19*
X129628824Y-67143953D03*
G04 #@! TD*
D18*
G04 #@! TO.C,R41*
X188008825Y-172343954D03*
D19*
X188008824Y-185043953D03*
G04 #@! TD*
D20*
G04 #@! TO.C,H2*
X245028825Y-65253954D03*
G04 #@! TD*
D23*
G04 #@! TO.C,P1*
X48418824Y-72513953D03*
X48418824Y-76473953D03*
X48418824Y-80433953D03*
X48418824Y-84393953D03*
X48418824Y-88353953D03*
X48418824Y-92313953D03*
X48418824Y-96273953D03*
X48418824Y-100233953D03*
X48418824Y-104193953D03*
X48418824Y-108153953D03*
X48418824Y-112113953D03*
X48418824Y-116073953D03*
X48418824Y-120033953D03*
X48418824Y-123993953D03*
X48418824Y-127953953D03*
X48418824Y-131913953D03*
X48418824Y-135873953D03*
X48418824Y-139833953D03*
X48418824Y-143793953D03*
X48418824Y-147753953D03*
X48418824Y-151713953D03*
X48418824Y-155673953D03*
G04 #@! TD*
D20*
G04 #@! TO.C,H3*
X60828825Y-322953954D03*
G04 #@! TD*
D24*
G04 #@! TO.C,VR1*
X104838825Y-285008954D03*
X104838825Y-294008954D03*
G04 #@! TD*
D19*
G04 #@! TO.C,U26*
X160188824Y-264983953D03*
X160188824Y-262443953D03*
X160188824Y-259903953D03*
X160188824Y-257363953D03*
X160188824Y-254823953D03*
X160188824Y-252283953D03*
X160188824Y-249743953D03*
X152568824Y-249743953D03*
X152568824Y-252283953D03*
X152568824Y-254823953D03*
X152568824Y-257363953D03*
X152568824Y-259903953D03*
X152568824Y-262443953D03*
X152568824Y-264983953D03*
G04 #@! TD*
D18*
G04 #@! TO.C,R6*
X141148825Y-248628954D03*
D19*
X141148824Y-261328953D03*
G04 #@! TD*
D18*
G04 #@! TO.C,R36*
X85338825Y-258743954D03*
D19*
X98038824Y-258743953D03*
G04 #@! TD*
D17*
G04 #@! TO.C,R49*
X66418825Y-298123954D03*
X66418825Y-280123954D03*
G04 #@! TD*
D22*
G04 #@! TO.C,U10*
X174008824Y-92543953D03*
X171468824Y-92543953D03*
X168928824Y-92543953D03*
X166388824Y-92543953D03*
X163848824Y-92543953D03*
X161308824Y-92543953D03*
X158768824Y-92543953D03*
X156228824Y-92543953D03*
X156228824Y-100163953D03*
X158768824Y-100163953D03*
X161308824Y-100163953D03*
X163848824Y-100163953D03*
X166388824Y-100163953D03*
X168928824Y-100163953D03*
X171468824Y-100163953D03*
X174008824Y-100163953D03*
G04 #@! TD*
D18*
G04 #@! TO.C,R3*
X124488825Y-80143954D03*
D19*
X124488824Y-67143953D03*
G04 #@! TD*
D22*
G04 #@! TO.C,U17*
X205848824Y-163533953D03*
X205848824Y-160993953D03*
X205848824Y-158453953D03*
X205848824Y-155913953D03*
X205848824Y-153373953D03*
X205848824Y-150833953D03*
X205848824Y-148293953D03*
X198228824Y-148293953D03*
X198228824Y-150833953D03*
X198228824Y-153373953D03*
X198228824Y-155913953D03*
X198228824Y-158453953D03*
X198228824Y-160993953D03*
X198228824Y-163533953D03*
G04 #@! TD*
D17*
G04 #@! TO.C,R48*
X61288825Y-301953954D03*
X61288825Y-283953954D03*
G04 #@! TD*
D18*
G04 #@! TO.C,R29*
X215958825Y-154645954D03*
D19*
X228658824Y-154645953D03*
G04 #@! TD*
G04 #@! TO.C,U24*
X160138824Y-225763953D03*
X160138824Y-223223953D03*
D22*
X160138824Y-220683953D03*
X160138824Y-218143953D03*
D19*
X160138824Y-215603953D03*
X160138824Y-213063953D03*
X160138824Y-210523953D03*
X160138824Y-207983953D03*
X152518824Y-207983953D03*
X152518824Y-210523953D03*
X152518824Y-213063953D03*
X152518824Y-215603953D03*
X152518824Y-218143953D03*
X152518824Y-220683953D03*
X152518824Y-223223953D03*
X152518824Y-225763953D03*
G04 #@! TD*
D20*
G04 #@! TO.C,H11*
X210650000Y-275860000D03*
G04 #@! TD*
D18*
G04 #@! TO.C,R16*
X136108825Y-261328954D03*
D19*
X136108824Y-248628953D03*
G04 #@! TD*
D18*
G04 #@! TO.C,R10*
X129748825Y-313093954D03*
D19*
X117048824Y-313093953D03*
G04 #@! TD*
D22*
G04 #@! TO.C,U5*
X174008824Y-155843953D03*
X171468824Y-155843953D03*
X168928824Y-155843953D03*
X166388824Y-155843953D03*
X163848824Y-155843953D03*
X161308824Y-155843953D03*
X158768824Y-155843953D03*
X156228824Y-155843953D03*
X156228824Y-163463953D03*
X158768824Y-163463953D03*
X161308824Y-163463953D03*
X163848824Y-163463953D03*
X166388824Y-163463953D03*
X168928824Y-163463953D03*
X171468824Y-163463953D03*
X174008824Y-163463953D03*
G04 #@! TD*
D18*
G04 #@! TO.C,C18*
X132098825Y-80143954D03*
X132098825Y-67143954D03*
G04 #@! TD*
D19*
G04 #@! TO.C,CR1*
X98038824Y-269023953D03*
X85338824Y-269023953D03*
G04 #@! TD*
D17*
G04 #@! TO.C,C10*
X136118825Y-285823954D03*
X136118825Y-308683954D03*
G04 #@! TD*
D18*
G04 #@! TO.C,R31*
X228658825Y-162263954D03*
D19*
X228658824Y-174963953D03*
G04 #@! TD*
G04 #@! TO.C,CR3*
X100558824Y-296903953D03*
X87858824Y-296903953D03*
G04 #@! TD*
D18*
G04 #@! TO.C,R44*
X207158825Y-172343954D03*
D19*
X207158824Y-185043953D03*
G04 #@! TD*
D18*
G04 #@! TO.C,R1*
X119358825Y-80143954D03*
D19*
X119358824Y-67143953D03*
G04 #@! TD*
D18*
G04 #@! TO.C,R50*
X120878825Y-276333954D03*
D19*
X108178824Y-276333953D03*
G04 #@! TD*
D25*
G04 #@! TO.C,J1*
X193218825Y-229063954D03*
X195758825Y-229063954D03*
X198298825Y-229063954D03*
X200838825Y-229063954D03*
X203378825Y-229063954D03*
X205918825Y-229063954D03*
X208458825Y-229063954D03*
X210998825Y-229063954D03*
X213538825Y-229063954D03*
X216078825Y-229063954D03*
X218618825Y-229063954D03*
X221158825Y-229063954D03*
X223698825Y-229063954D03*
X226238825Y-229063954D03*
X228778825Y-229063954D03*
G04 #@! TD*
D22*
G04 #@! TO.C,U23*
X233758824Y-197703953D03*
X233758824Y-200243953D03*
X233758824Y-202783953D03*
X233758824Y-205323953D03*
X233758824Y-207863953D03*
X233758824Y-210403953D03*
X233758824Y-212943953D03*
D18*
X241378825Y-212943954D03*
X241378825Y-210403954D03*
X241378825Y-207863954D03*
X241378825Y-205323954D03*
X241378825Y-202783954D03*
X241378825Y-200243954D03*
X241378825Y-197703954D03*
G04 #@! TD*
D19*
G04 #@! TO.C,U25*
X160268824Y-286483953D03*
X160268824Y-283943953D03*
X160268824Y-281403953D03*
X160268824Y-278863953D03*
X160268824Y-276323953D03*
X160268824Y-273783953D03*
X160268824Y-271243953D03*
X152648824Y-271243953D03*
X152648824Y-273783953D03*
X152648824Y-276323953D03*
X152648824Y-278863953D03*
X152648824Y-281403953D03*
X152648824Y-283943953D03*
X152648824Y-286483953D03*
G04 #@! TD*
D18*
G04 #@! TO.C,Q7*
X142328825Y-244043954D03*
X140423825Y-245948954D03*
X138518825Y-244043954D03*
G04 #@! TD*
D19*
G04 #@! TO.C,CR8*
X119388824Y-64463953D03*
X132088824Y-64463953D03*
G04 #@! TD*
D20*
G04 #@! TO.C,H12*
X175677825Y-311783954D03*
G04 #@! TD*
D22*
G04 #@! TO.C,U7*
X174008824Y-130683953D03*
X171468824Y-130683953D03*
X168928824Y-130683953D03*
X166388824Y-130683953D03*
X163848824Y-130683953D03*
X161308824Y-130683953D03*
X158768824Y-130683953D03*
X156228824Y-130683953D03*
X156228824Y-138303953D03*
X158768824Y-138303953D03*
X161308824Y-138303953D03*
X163848824Y-138303953D03*
X166388824Y-138303953D03*
X168928824Y-138303953D03*
X171468824Y-138303953D03*
X174008824Y-138303953D03*
G04 #@! TD*
D20*
G04 #@! TO.C,H8*
X245028825Y-246453954D03*
G04 #@! TD*
D18*
G04 #@! TO.C,R32*
X234918825Y-149563954D03*
D19*
X234918824Y-162263953D03*
G04 #@! TD*
D18*
G04 #@! TO.C,Q5*
X217898825Y-191338954D03*
X215993825Y-189433954D03*
X217898825Y-187528954D03*
G04 #@! TD*
G04 #@! TO.C,R28*
X215958825Y-157185954D03*
D19*
X228658824Y-157185953D03*
G04 #@! TD*
D18*
G04 #@! TO.C,Q6*
X224190825Y-191338954D03*
X222285825Y-189433954D03*
X224190825Y-187528954D03*
G04 #@! TD*
G04 #@! TO.C,R30*
X215958825Y-152105954D03*
D19*
X228658824Y-152105953D03*
G04 #@! TD*
D17*
G04 #@! TO.C,C8*
X142498825Y-308713954D03*
X142498825Y-273153954D03*
G04 #@! TD*
D18*
G04 #@! TO.C,R40*
X125908825Y-248628954D03*
D19*
X125908824Y-261328953D03*
G04 #@! TD*
D22*
G04 #@! TO.C,U9*
X174008824Y-105353953D03*
X171468824Y-105353953D03*
X168928824Y-105353953D03*
X166388824Y-105353953D03*
X163848824Y-105353953D03*
X161308824Y-105353953D03*
X158768824Y-105353953D03*
X156228824Y-105353953D03*
X156228824Y-112973953D03*
X158768824Y-112973953D03*
X161308824Y-112973953D03*
X163848824Y-112973953D03*
X166388824Y-112973953D03*
X168928824Y-112973953D03*
X171468824Y-112973953D03*
X174008824Y-112973953D03*
G04 #@! TD*
G04 #@! TO.C,U21*
X208978824Y-197703953D03*
X208978824Y-200243953D03*
X208978824Y-202783953D03*
X208978824Y-205323953D03*
X208978824Y-207863953D03*
X208978824Y-210403953D03*
X208978824Y-212943953D03*
X216598824Y-212943953D03*
X216598824Y-210403953D03*
X216598824Y-207863953D03*
X216598824Y-205323953D03*
X216598824Y-202783953D03*
X216598824Y-200243953D03*
X216598824Y-197703953D03*
G04 #@! TD*
D17*
G04 #@! TO.C,C3*
X129728825Y-316233954D03*
X167828825Y-316233954D03*
G04 #@! TD*
G04 #@! TO.C,C16*
X147368825Y-138363954D03*
X147368825Y-102803954D03*
G04 #@! TD*
G04 #@! TO.C,C11*
X106888825Y-301903954D03*
X129748825Y-301903954D03*
G04 #@! TD*
D26*
G04 #@! TO.C,X1*
X186728825Y-81783954D03*
X186728825Y-69443954D03*
G04 #@! TD*
D20*
G04 #@! TO.C,H6*
X198690000Y-241140000D03*
G04 #@! TD*
D19*
G04 #@! TO.C,CR4*
X87858824Y-299493953D03*
X100558824Y-299493953D03*
G04 #@! TD*
D18*
G04 #@! TO.C,R18*
X190588825Y-185043954D03*
D19*
X190588824Y-172343953D03*
G04 #@! TD*
D17*
G04 #@! TO.C,C2*
X171648825Y-317443954D03*
X171648825Y-279343954D03*
G04 #@! TD*
D18*
G04 #@! TO.C,R11*
X132378825Y-299383954D03*
D19*
X132378824Y-312083953D03*
G04 #@! TD*
G04 #@! TO.C,U12*
X174008824Y-67303953D03*
X171468824Y-67303953D03*
X168928824Y-67303953D03*
D27*
X166388824Y-67303953D03*
D19*
X163848824Y-67303953D03*
X161308824Y-67303953D03*
X158768824Y-67303953D03*
X156228824Y-67303953D03*
D22*
X156228824Y-74923953D03*
X158768824Y-74923953D03*
X161308824Y-74923953D03*
X163848824Y-74923953D03*
X166388824Y-74923953D03*
X168928824Y-74923953D03*
X171468824Y-74923953D03*
X174008824Y-74923953D03*
G04 #@! TD*
D20*
G04 #@! TO.C,H9*
X188170000Y-263960000D03*
G04 #@! TD*
D22*
G04 #@! TO.C,U22*
X222948824Y-197703953D03*
X222948824Y-200243953D03*
X222948824Y-202783953D03*
X222948824Y-205323953D03*
X222948824Y-207863953D03*
X222948824Y-210403953D03*
X222948824Y-212943953D03*
X230568824Y-212943953D03*
X230568824Y-210403953D03*
X230568824Y-207863953D03*
X230568824Y-205323953D03*
X230568824Y-202783953D03*
X230568824Y-200243953D03*
X230568824Y-197703953D03*
G04 #@! TD*
D19*
G04 #@! TO.C,U14*
X193018824Y-115443953D03*
X193018824Y-112903953D03*
X193018824Y-110363953D03*
X193018824Y-107823953D03*
X193018824Y-105283953D03*
X193018824Y-102743953D03*
X193018824Y-100203953D03*
X185398824Y-100203953D03*
X185398824Y-102743953D03*
X185398824Y-105283953D03*
X185398824Y-107823953D03*
X185398824Y-110363953D03*
X185398824Y-112903953D03*
X185398824Y-115443953D03*
G04 #@! TD*
G04 #@! TO.C,U3*
X82618824Y-143403953D03*
X85158824Y-143403953D03*
X87698824Y-143403953D03*
X90238824Y-143403953D03*
X92778824Y-143403953D03*
X95318824Y-143403953D03*
X97858824Y-143403953D03*
D22*
X100398824Y-143403953D03*
X102938824Y-143403953D03*
X105478824Y-143403953D03*
X108018824Y-143403953D03*
X110558824Y-143403953D03*
X113098824Y-143403953D03*
X115638824Y-143403953D03*
X118178824Y-143403953D03*
X120718824Y-143403953D03*
D19*
X123258824Y-143403953D03*
X125798824Y-143403953D03*
X128338824Y-143403953D03*
X130878824Y-143403953D03*
X130878824Y-128163953D03*
X128338824Y-128163953D03*
X125798824Y-128163953D03*
X123258824Y-128163953D03*
X120718824Y-128163953D03*
D22*
X118178824Y-128163953D03*
X115638824Y-128163953D03*
X113098824Y-128163953D03*
X110558824Y-128163953D03*
X108018824Y-128163953D03*
X105478824Y-128163953D03*
X102938824Y-128163953D03*
X100398824Y-128163953D03*
X97858824Y-128163953D03*
X95318824Y-128163953D03*
X92778824Y-128163953D03*
X90238824Y-128163953D03*
X87698824Y-128163953D03*
D19*
X85158824Y-128163953D03*
X82618824Y-128163953D03*
G04 #@! TD*
D18*
G04 #@! TO.C,R52*
X136108825Y-276333954D03*
D19*
X123408824Y-276333953D03*
G04 #@! TD*
D28*
G04 #@! TO.C,CR6*
X148658824Y-268103953D03*
X161358824Y-268103953D03*
G04 #@! TD*
D19*
G04 #@! TO.C,U4*
X87808824Y-237223953D03*
X87808824Y-239763953D03*
X87808824Y-242303953D03*
X87808824Y-244843953D03*
X87808824Y-247383953D03*
X87808824Y-249923953D03*
X87808824Y-252463953D03*
X87808824Y-255003953D03*
X95428824Y-255003953D03*
X95428824Y-252463953D03*
X95428824Y-249923953D03*
X95428824Y-247383953D03*
X95428824Y-244843953D03*
X95428824Y-242303953D03*
X95428824Y-239763953D03*
X95428824Y-237223953D03*
G04 #@! TD*
G04 #@! TO.C,U16*
X111998824Y-228283953D03*
X111998824Y-230823953D03*
X111998824Y-233363953D03*
X111998824Y-235903953D03*
X111998824Y-238443953D03*
X111998824Y-240983953D03*
X111998824Y-243523953D03*
X119618824Y-243523953D03*
X119618824Y-240983953D03*
X119618824Y-238443953D03*
X119618824Y-235903953D03*
X119618824Y-233363953D03*
X119618824Y-230823953D03*
X119618824Y-228283953D03*
G04 #@! TD*
D18*
G04 #@! TO.C,R47*
X157638825Y-242253954D03*
D19*
X144938824Y-242253953D03*
G04 #@! TD*
D17*
G04 #@! TO.C,C12*
X82788825Y-313043954D03*
X113268825Y-313043954D03*
G04 #@! TD*
D18*
G04 #@! TO.C,R39*
X82658825Y-210733954D03*
D19*
X82658824Y-202033953D03*
G04 #@! TD*
G04 #@! TO.C,U2*
X82718824Y-176373953D03*
X85258824Y-176373953D03*
D22*
X87798824Y-176373953D03*
X90338824Y-176373953D03*
D19*
X92878824Y-176373953D03*
D22*
X95418824Y-176373953D03*
X97958824Y-176373953D03*
X100498824Y-176373953D03*
D19*
X103038824Y-176373953D03*
X105578824Y-176373953D03*
X108118824Y-176373953D03*
X110658824Y-176373953D03*
X113198824Y-176373953D03*
X115738824Y-176373953D03*
X118278824Y-176373953D03*
D22*
X120818824Y-176373953D03*
X123358824Y-176373953D03*
X125898824Y-176373953D03*
X128438824Y-176373953D03*
X130978824Y-176373953D03*
D19*
X130978824Y-161133953D03*
X128438824Y-161133953D03*
D22*
X125898824Y-161133953D03*
X123358824Y-161133953D03*
X120818824Y-161133953D03*
X118278824Y-161133953D03*
X115738824Y-161133953D03*
X113198824Y-161133953D03*
X110658824Y-161133953D03*
X108118824Y-161133953D03*
X105578824Y-161133953D03*
X103038824Y-161133953D03*
X100498824Y-161133953D03*
X97958824Y-161133953D03*
X95418824Y-161133953D03*
X92878824Y-161133953D03*
X90338824Y-161133953D03*
X87798824Y-161133953D03*
X85258824Y-161133953D03*
D19*
X82718824Y-161133953D03*
G04 #@! TD*
D17*
G04 #@! TO.C,C4*
X130938825Y-265193954D03*
X130938825Y-242333954D03*
G04 #@! TD*
D28*
G04 #@! TO.C,CR7*
X58578824Y-172843953D03*
X58578824Y-185143953D03*
G04 #@! TD*
D21*
G04 #@! TO.C,H16*
X233110000Y-288050000D03*
G04 #@! TD*
D20*
G04 #@! TO.C,H10*
X233110000Y-263960000D03*
G04 #@! TD*
D17*
G04 #@! TO.C,C9*
X106888825Y-306863954D03*
X129748825Y-306863954D03*
G04 #@! TD*
D18*
G04 #@! TO.C,Q2*
X198934825Y-191338954D03*
X197029825Y-189433954D03*
X198934825Y-187528954D03*
G04 #@! TD*
D20*
G04 #@! TO.C,H1*
X60828825Y-65253954D03*
G04 #@! TD*
D18*
G04 #@! TO.C,R38*
X82748825Y-228443954D03*
D19*
X95448824Y-228443953D03*
G04 #@! TD*
D18*
G04 #@! TO.C,R42*
X194468825Y-172333954D03*
D19*
X194468824Y-185033953D03*
G04 #@! TD*
D17*
G04 #@! TO.C,C17*
X169728825Y-273933954D03*
X169728825Y-238373954D03*
G04 #@! TD*
D18*
G04 #@! TO.C,R37*
X82748825Y-231093954D03*
D19*
X95448824Y-231093953D03*
G04 #@! TD*
D18*
G04 #@! TO.C,R9*
X129748825Y-310483954D03*
D19*
X117048824Y-310483953D03*
G04 #@! TD*
G04 #@! TO.C,U28*
X124608824Y-281433953D03*
X124608824Y-283973953D03*
X124608824Y-286513953D03*
X124608824Y-289053953D03*
X132228824Y-289053953D03*
X132228824Y-286513953D03*
X132228824Y-283973953D03*
X132228824Y-281433953D03*
G04 #@! TD*
D22*
G04 #@! TO.C,U1*
X130878824Y-91533953D03*
X128338824Y-91533953D03*
D19*
X125798824Y-91533953D03*
D22*
X123258824Y-91533953D03*
X120718824Y-91533953D03*
D19*
X118178824Y-91533953D03*
D22*
X115638824Y-91533953D03*
X113098824Y-91533953D03*
X110558824Y-91533953D03*
X108018824Y-91533953D03*
D19*
X105478824Y-91533953D03*
X102938824Y-91533953D03*
X100398824Y-91533953D03*
X97858824Y-91533953D03*
X95318824Y-91533953D03*
X92778824Y-91533953D03*
X90238824Y-91533953D03*
X87698824Y-91533953D03*
X85158824Y-91533953D03*
X82618824Y-91533953D03*
D22*
X82618824Y-106773953D03*
X85158824Y-106773953D03*
X87698824Y-106773953D03*
D19*
X90238824Y-106773953D03*
D22*
X92778824Y-106773953D03*
X95318824Y-106773953D03*
X97858824Y-106773953D03*
X100398824Y-106773953D03*
X102938824Y-106773953D03*
X105478824Y-106773953D03*
X108018824Y-106773953D03*
X110558824Y-106773953D03*
X113098824Y-106773953D03*
X115638824Y-106773953D03*
X118178824Y-106773953D03*
X120718824Y-106773953D03*
X123258824Y-106773953D03*
X125798824Y-106773953D03*
X128338824Y-106773953D03*
X130878824Y-106773953D03*
G04 #@! TD*
D18*
G04 #@! TO.C,R14*
X98030000Y-266440000D03*
D19*
X85329999Y-266439999D03*
G04 #@! TD*
D22*
G04 #@! TO.C,U20*
X198208824Y-197703953D03*
X198208824Y-200243953D03*
X198208824Y-202783953D03*
X198208824Y-205323953D03*
X198208824Y-207863953D03*
X198208824Y-210403953D03*
X198208824Y-212943953D03*
X205828824Y-212943953D03*
X205828824Y-210403953D03*
X205828824Y-207863953D03*
X205828824Y-205323953D03*
X205828824Y-202783953D03*
X205828824Y-200243953D03*
X205828824Y-197703953D03*
G04 #@! TD*
D18*
G04 #@! TO.C,R7*
X175458825Y-264983954D03*
D19*
X175458824Y-252283953D03*
G04 #@! TD*
D17*
G04 #@! TO.C,C7*
X143118825Y-270153954D03*
X107558825Y-270153954D03*
G04 #@! TD*
G04 #@! TO.C,C1*
X58588825Y-213083954D03*
X58588825Y-190223954D03*
G04 #@! TD*
D20*
G04 #@! TO.C,H14*
X222690000Y-310750000D03*
G04 #@! TD*
G04 #@! TO.C,H7*
X222860000Y-241140000D03*
G04 #@! TD*
D19*
G04 #@! TO.C,CR2*
X85338824Y-271543953D03*
X98038824Y-271543953D03*
G04 #@! TD*
D17*
G04 #@! TO.C,C15*
X200688825Y-106533954D03*
X200688825Y-142093954D03*
G04 #@! TD*
D20*
G04 #@! TO.C,H4*
X245028825Y-322953954D03*
G04 #@! TD*
D18*
G04 #@! TO.C,Q4*
X211639825Y-191338954D03*
X209734825Y-189433954D03*
X211639825Y-187528954D03*
G04 #@! TD*
G04 #@! TO.C,R24*
X162778825Y-290413954D03*
D19*
X162778824Y-303113953D03*
G04 #@! TD*
D18*
G04 #@! TO.C,Q3*
X205207825Y-191338954D03*
X203302825Y-189433954D03*
X205207825Y-187528954D03*
G04 #@! TD*
G04 #@! TO.C,R19*
X197028825Y-185043954D03*
D19*
X197028824Y-172343953D03*
G04 #@! TD*
D18*
G04 #@! TO.C,R35*
X82748825Y-233683954D03*
D19*
X95448824Y-233683953D03*
G04 #@! TD*
G04 #@! TO.C,U13*
X193018824Y-140663953D03*
X193018824Y-138123953D03*
X193018824Y-135583953D03*
X193018824Y-133043953D03*
X193018824Y-130503953D03*
X193018824Y-127963953D03*
X193018824Y-125423953D03*
X185398824Y-125423953D03*
X185398824Y-127963953D03*
X185398824Y-130503953D03*
X185398824Y-133043953D03*
X185398824Y-135583953D03*
X185398824Y-138123953D03*
X185398824Y-140663953D03*
G04 #@! TD*
G04 #@! TO.C,U18*
X176638824Y-197703953D03*
X176638824Y-200243953D03*
X176638824Y-202783953D03*
X176638824Y-205323953D03*
X176638824Y-207863953D03*
X176638824Y-210403953D03*
X176638824Y-212943953D03*
D22*
X184258824Y-212943953D03*
X184258824Y-210403953D03*
X184258824Y-207863953D03*
X184258824Y-205323953D03*
X184258824Y-202783953D03*
X184258824Y-200243953D03*
X184258824Y-197703953D03*
G04 #@! TD*
D18*
G04 #@! TO.C,R20*
X203298825Y-185043954D03*
D19*
X203298824Y-172343953D03*
G04 #@! TD*
D18*
G04 #@! TO.C,R17*
X143688825Y-261328954D03*
D19*
X143688824Y-248628953D03*
G04 #@! TD*
G04 #@! TO.C,U27*
X87908824Y-275163953D03*
X87908824Y-277703953D03*
X87908824Y-280243953D03*
X87908824Y-282783953D03*
X87908824Y-285323953D03*
X87908824Y-287863953D03*
X87908824Y-290403953D03*
X95528824Y-290403953D03*
X95528824Y-287863953D03*
X95528824Y-285323953D03*
X95528824Y-282783953D03*
X95528824Y-280243953D03*
X95528824Y-277703953D03*
X95528824Y-275163953D03*
G04 #@! TD*
D23*
G04 #@! TO.C,P2*
X48418824Y-231513953D03*
X48418824Y-235473953D03*
X48418824Y-239433953D03*
X48418824Y-243393953D03*
X48418824Y-247353953D03*
X48418824Y-251313953D03*
X48418824Y-255273953D03*
X48418824Y-259233953D03*
X48418824Y-263193953D03*
X48418824Y-267153953D03*
X48418824Y-271113953D03*
X48418824Y-275073953D03*
X48418824Y-279033953D03*
X48418824Y-282993953D03*
X48418824Y-286953953D03*
X48418824Y-290913953D03*
X48418824Y-294873953D03*
X48418824Y-298833953D03*
X48418824Y-302793953D03*
X48418824Y-306753953D03*
X48418824Y-310713953D03*
X48418824Y-314673953D03*
G04 #@! TD*
D18*
G04 #@! TO.C,R34*
X80198825Y-296803954D03*
D19*
X80198824Y-284103953D03*
G04 #@! TD*
D18*
G04 #@! TO.C,R45*
X213418825Y-172343954D03*
D19*
X213418824Y-185043953D03*
G04 #@! TD*
D18*
G04 #@! TO.C,R12*
X165268825Y-290413954D03*
D19*
X165268824Y-303113953D03*
G04 #@! TD*
D18*
G04 #@! TO.C,R13*
X157738825Y-290413954D03*
D19*
X157738824Y-303113953D03*
G04 #@! TD*
D18*
G04 #@! TO.C,R25*
X160228825Y-303113954D03*
D19*
X160228824Y-290413953D03*
G04 #@! TD*
D18*
G04 #@! TO.C,R26*
X225468825Y-162263954D03*
D19*
X225468824Y-174963953D03*
G04 #@! TD*
D22*
G04 #@! TO.C,U6*
X174008824Y-143263953D03*
X171468824Y-143263953D03*
X168928824Y-143263953D03*
X166388824Y-143263953D03*
X163848824Y-143263953D03*
X161308824Y-143263953D03*
X158768824Y-143263953D03*
X156228824Y-143263953D03*
X156228824Y-150883953D03*
X158768824Y-150883953D03*
X161308824Y-150883953D03*
X163848824Y-150883953D03*
X166388824Y-150883953D03*
X168928824Y-150883953D03*
X171468824Y-150883953D03*
X174008824Y-150883953D03*
G04 #@! TD*
D18*
G04 #@! TO.C,R43*
X200738825Y-172343954D03*
D19*
X200738824Y-185043953D03*
G04 #@! TD*
D18*
G04 #@! TO.C,R53*
X134518825Y-67143954D03*
D19*
X147518824Y-67143953D03*
G04 #@! TD*
G04 #@! TO.C,U15*
X111998824Y-248628953D03*
X111998824Y-251168953D03*
X111998824Y-253708953D03*
X111998824Y-256248953D03*
X111998824Y-258788953D03*
X111998824Y-261328953D03*
X111998824Y-263868953D03*
X119618824Y-263868953D03*
X119618824Y-261328953D03*
X119618824Y-258788953D03*
X119618824Y-256248953D03*
X119618824Y-253708953D03*
X119618824Y-251168953D03*
X119618824Y-248628953D03*
G04 #@! TD*
D28*
G04 #@! TO.C,CR5*
X145628824Y-245323953D03*
X158328824Y-245323953D03*
G04 #@! TD*
D18*
G04 #@! TO.C,R8*
X82848825Y-266440000D03*
D19*
X82848824Y-279139999D03*
G04 #@! TD*
D20*
G04 #@! TO.C,H5*
X175677825Y-230953954D03*
G04 #@! TD*
D18*
G04 #@! TO.C,R15*
X85338825Y-263983954D03*
D19*
X98038824Y-263983953D03*
G04 #@! TD*
D18*
G04 #@! TO.C,R46*
X219708825Y-172343954D03*
D19*
X219708824Y-185043953D03*
G04 #@! TD*
D18*
G04 #@! TO.C,R23*
X222278825Y-185043954D03*
D19*
X222278824Y-172343953D03*
G04 #@! TD*
D18*
G04 #@! TO.C,R21*
X209728825Y-185043954D03*
D19*
X209728824Y-172343953D03*
G04 #@! TD*
D18*
G04 #@! TO.C,R22*
X215988825Y-185043954D03*
D19*
X215988824Y-172343953D03*
G04 #@! TD*
D18*
G04 #@! TO.C,R4*
X151328825Y-290413954D03*
D19*
X151328824Y-303113953D03*
G04 #@! TD*
D18*
G04 #@! TO.C,R51*
X100558825Y-294433954D03*
D19*
X87858824Y-294433953D03*
G04 #@! TD*
D17*
G04 #@! TO.C,C13*
X103098825Y-278363954D03*
X103098825Y-247883954D03*
G04 #@! TD*
D22*
G04 #@! TO.C,U19*
X187388824Y-197703953D03*
X187388824Y-200243953D03*
X187388824Y-202783953D03*
X187388824Y-205323953D03*
X187388824Y-207863953D03*
X187388824Y-210403953D03*
X187388824Y-212943953D03*
X195008824Y-212943953D03*
X195008824Y-210403953D03*
X195008824Y-207863953D03*
X195008824Y-205323953D03*
X195008824Y-202783953D03*
X195008824Y-200243953D03*
X195008824Y-197703953D03*
G04 #@! TD*
M02*
