G04 #@! TF.GenerationSoftware,KiCad,Pcbnew,7.0.2*
G04 #@! TF.CreationDate,2023-05-25T15:58:06+02:00*
G04 #@! TF.ProjectId,kim-1,6b696d2d-312e-46b6-9963-61645f706362,rev?*
G04 #@! TF.SameCoordinates,Original*
G04 #@! TF.FileFunction,Profile,NP*
%FSLAX46Y46*%
G04 Gerber Fmt 4.6, Leading zero omitted, Abs format (unit mm)*
G04 Created by KiCad (PCBNEW 7.0.2) date 2023-05-25 15:58:06*
%MOMM*%
%LPD*%
G01*
G04 APERTURE LIST*
G04 #@! TA.AperFunction,Profile*
%ADD10C,0.100000*%
G04 #@! TD*
G04 APERTURE END LIST*
D10*
X45178825Y-318603954D02*
X52178825Y-318603954D01*
X52178825Y-68604025D02*
G75*
G03*
X53178825Y-67603954I-25J1000025D01*
G01*
X43178825Y-229603954D02*
X43178825Y-316603954D01*
X45178825Y-227603955D02*
G75*
G03*
X43178825Y-229603954I-5J-1999995D01*
G01*
X53178825Y-67603954D02*
X53178825Y-58603954D01*
X53178825Y-160603954D02*
X53178825Y-226603954D01*
X52178825Y-227603954D02*
X45178825Y-227603954D01*
X253178846Y-58603954D02*
G75*
G03*
X252178825Y-57603954I-1000046J-46D01*
G01*
X53178846Y-329603954D02*
G75*
G03*
X54178825Y-330603954I999954J-46D01*
G01*
X253178825Y-329603954D02*
X253178825Y-58603954D01*
X53178825Y-319603954D02*
X53178825Y-329603954D01*
X53178846Y-160603954D02*
G75*
G03*
X52178825Y-159603954I-1000046J-46D01*
G01*
X43178846Y-157603954D02*
G75*
G03*
X45178825Y-159603954I1999954J-46D01*
G01*
X43178825Y-157603954D02*
X43178825Y-70603954D01*
X52178825Y-159603954D02*
X45178825Y-159603954D01*
X53178846Y-319603954D02*
G75*
G03*
X52178825Y-318603954I-1000046J-46D01*
G01*
X54178825Y-57603954D02*
X252178825Y-57603954D01*
X252178825Y-330604025D02*
G75*
G03*
X253178825Y-329603954I-25J1000025D01*
G01*
X54178825Y-330603954D02*
X252178825Y-330603954D01*
X54178825Y-57604025D02*
G75*
G03*
X53178825Y-58603954I-25J-999975D01*
G01*
X45178825Y-68603954D02*
X52178825Y-68603954D01*
X45178825Y-68603955D02*
G75*
G03*
X43178825Y-70603954I-5J-1999995D01*
G01*
X43178846Y-316603954D02*
G75*
G03*
X45178825Y-318603954I1999954J-46D01*
G01*
X52178825Y-227604025D02*
G75*
G03*
X53178825Y-226603954I-25J1000025D01*
G01*
M02*
